<svg width="33" height="33" viewBox="0 0 33 33" fill="none" xmlns="http://www.w3.org/2000/svg">
<mask id="mask0_249_4066" style="mask-type:alpha" maskUnits="userSpaceOnUse" x="0" y="0" width="33" height="33">
<rect x="0.5" y="0.75" width="32" height="32" fill="#D9D9D9"/>
</mask>
<g mask="url(#mask0_249_4066)">
<path d="M25.8334 11.4165V8.74984H23.1667V6.08317H25.8334V3.4165H28.5V6.08317H31.1667V8.74984H28.5V11.4165H25.8334ZM4.50004 30.0832C3.76671 30.0832 3.13915 29.8223 2.61737 29.3005C2.09471 28.7778 1.83337 28.1498 1.83337 27.4165V11.4165C1.83337 10.6832 2.09471 10.0556 2.61737 9.53384C3.13915 9.01117 3.76671 8.74984 4.50004 8.74984H8.70004L11.1667 6.08317H19.1667V8.74984H12.3334L9.90004 11.4165H4.50004V27.4165H25.8334V15.4165H28.5V27.4165C28.5 28.1498 28.2392 28.7778 27.7174 29.3005C27.1947 29.8223 26.5667 30.0832 25.8334 30.0832H4.50004ZM15.1667 25.4165C16.8334 25.4165 18.2503 24.8334 19.4174 23.6672C20.5836 22.5001 21.1667 21.0832 21.1667 19.4165C21.1667 17.7498 20.5836 16.3329 19.4174 15.1658C18.2503 13.9996 16.8334 13.4165 15.1667 13.4165C13.5 13.4165 12.0832 13.9996 10.916 15.1658C9.74982 16.3329 9.16671 17.7498 9.16671 19.4165C9.16671 21.0832 9.74982 22.5001 10.916 23.6672C12.0832 24.8334 13.5 25.4165 15.1667 25.4165ZM15.1667 22.7498C14.2334 22.7498 13.4445 22.4276 12.8 21.7832C12.1556 21.1387 11.8334 20.3498 11.8334 19.4165C11.8334 18.4832 12.1556 17.6943 12.8 17.0498C13.4445 16.4054 14.2334 16.0832 15.1667 16.0832C16.1 16.0832 16.8889 16.4054 17.5334 17.0498C18.1778 17.6943 18.5 18.4832 18.5 19.4165C18.5 20.3498 18.1778 21.1387 17.5334 21.7832C16.8889 22.4276 16.1 22.7498 15.1667 22.7498Z" fill="#555555"/>
</g>
</svg>
