<svg width="40" height="40" viewBox="0 0 40 40" fill="none" xmlns="http://www.w3.org/2000/svg">
<rect width="40" height="40" rx="20" fill="#FFFBFF"/>
<rect width="40" height="40" rx="20" fill="#52000B" fill-opacity="0.024"/>
<mask id="mask0_1390_21654" style="mask-type:alpha" maskUnits="userSpaceOnUse" x="8" y="8" width="24" height="24">
<rect x="8" y="8" width="24" height="24" fill="#D9D9D9"/>
</mask>
<g mask="url(#mask0_1390_21654)">
<path d="M13 29C12.45 29 11.979 28.8043 11.587 28.413C11.1957 28.021 11 27.55 11 27V13C11 12.45 11.1957 11.979 11.587 11.587C11.979 11.1957 12.45 11 13 11H27C27.55 11 28.021 11.1957 28.413 11.587C28.8043 11.979 29 12.45 29 13V19.7C28.6833 19.55 28.3583 19.4207 28.025 19.312C27.6917 19.204 27.35 19.125 27 19.075V13H13V27H19.05C19.1 27.3667 19.1793 27.7167 19.288 28.05C19.396 28.3833 19.525 28.7 19.675 29H13ZM13 27V13V19.075V19V27ZM15 25H19.075C19.125 24.65 19.204 24.3083 19.312 23.975C19.4207 23.6417 19.5417 23.3167 19.675 23H15V25ZM15 21H21.1C21.6333 20.5 22.229 20.0833 22.887 19.75C23.5457 19.4167 24.25 19.1917 25 19.075V19H15V21ZM15 17H25V15H15V17ZM26 31C24.6167 31 23.4377 30.5127 22.463 29.538C21.4877 28.5627 21 27.3833 21 26C21 24.6167 21.4877 23.4373 22.463 22.462C23.4377 21.4873 24.6167 21 26 21C27.3833 21 28.5627 21.4873 29.538 22.462C30.5127 23.4373 31 24.6167 31 26C31 27.3833 30.5127 28.5627 29.538 29.538C28.5627 30.5127 27.3833 31 26 31ZM25.5 29H26.5V26.5H29V25.5H26.5V23H25.5V25.5H23V26.5H25.5V29Z" fill="#AA0017"/>
</g>
</svg>
