<svg width="201" height="48" viewBox="0 0 201 48" fill="none" xmlns="http://www.w3.org/2000/svg">
<g clip-path="url(#clip0_454_18910)">
<path d="M66.2583 22.0706L66.1685 22.4638C67.444 22.7277 68.4055 23.2792 69.0529 24.1184C69.3753 24.5443 69.6018 25.0347 69.717 25.5562C69.8323 26.0777 69.8335 26.618 69.7206 27.14C69.4567 28.6601 68.6166 29.8801 67.2004 30.8002C65.7841 31.7204 64.0028 32.1804 61.8565 32.1804H53.8103L57.3333 12.3223H65.3505C67.4951 12.3223 69.0644 12.7885 70.0584 13.7209C71.0524 14.6533 71.4042 15.9077 71.1139 17.4841C70.9321 18.6378 70.3757 19.6996 69.5306 20.5057C68.6271 21.3521 67.4842 21.8986 66.2583 22.0706ZM58.0907 28.7207H62.1283C64.5597 28.7207 65.9161 27.9414 66.1976 26.3826C66.3401 25.5909 66.1378 24.9937 65.5906 24.5908C65.0435 24.1879 64.1717 23.9856 62.9754 23.9838H58.9404L58.0907 28.7207ZM59.5448 20.5215H63.585C65.7912 20.5215 67.0359 19.7122 67.3191 18.0937C67.4581 17.2826 67.3015 16.6906 66.8494 16.3176C66.3972 15.9447 65.5818 15.7573 64.4031 15.7555H60.3655L59.5448 20.5215Z" fill="#DB001E"/>
<path d="M75.2149 26.1681C75.1146 27.2817 75.3125 28.1323 75.8086 28.7199C76.3048 29.3075 77.0788 29.6005 78.1309 29.5987C78.8723 29.6119 79.6011 29.4063 80.2262 29.0076C80.826 28.6212 81.2843 28.0509 81.5325 27.382L85.0239 27.9282C84.4384 29.3959 83.4146 30.6473 82.092 31.512C80.7445 32.3947 79.1637 32.8542 77.553 32.8314C75.3081 32.8314 73.6588 32.1479 72.6049 30.781C71.5511 29.414 71.2371 27.5368 71.6628 25.1494C72.0868 22.8008 73.0333 20.9438 74.5023 19.5786C75.9705 18.211 77.917 17.4746 79.9228 17.5281C82.0674 17.5281 83.6358 18.2116 84.628 19.5786C85.6203 20.9456 85.9238 22.7418 85.5385 24.9673L85.3274 26.1813L75.2149 26.1681ZM75.7004 23.6795H82.0339C82.1184 23.3046 82.1129 22.915 82.018 22.5425C81.9231 22.1701 81.7413 21.8254 81.4877 21.5367C80.981 20.9825 80.2632 20.7028 79.3316 20.7028C78.5149 20.6849 77.7185 20.9591 77.0859 21.476C76.4197 22.0602 75.9382 22.826 75.7004 23.6795Z" fill="#DB001E"/>
<path d="M88.787 18.2087H92.4631L90.8217 21.7607L91.7638 22.1671L90.0036 32.1952H86.3275L88.787 18.2087ZM95.4689 21.4256C94.5055 21.425 93.5677 21.736 92.7956 22.3123C92.4178 22.5666 92.0944 22.8936 91.8443 23.2741C91.5942 23.6547 91.4224 24.0813 91.3389 24.529L91.0354 23.5262C91.3169 21.8478 91.9547 20.5072 92.9487 19.5044C93.4039 19.0237 93.9533 18.6421 94.5627 18.3833C95.172 18.1245 95.8281 17.9941 96.4901 18.0002H97.6434L97.0654 21.4309L95.4689 21.4256Z" fill="#DB001E"/>
<path d="M99.3534 18.2088H103.029L101.388 21.7608L102.33 22.1672L100.57 32.1953H96.8939L99.3534 18.2088ZM106.035 21.4257C105.068 21.4224 104.126 21.7336 103.351 22.3124C102.974 22.5667 102.65 22.8937 102.4 23.2743C102.15 23.6548 101.978 24.0814 101.895 24.5291L101.591 23.5263C101.874 21.8479 102.512 20.5073 103.504 19.5045C103.961 19.0225 104.512 18.6401 105.123 18.3813C105.735 18.1224 106.393 17.9927 107.056 18.0003H108.21L107.632 21.431L106.035 21.4257Z" fill="#DB001E"/>
<path d="M115.324 27.1102L119.576 18.209H123.553L114.844 34.7262C114.364 35.7007 113.642 36.5364 112.749 37.1541C111.963 37.7004 111.03 37.9958 110.073 38.0012H106.489L107.046 34.6998H109.263C109.663 34.7171 110.059 34.6172 110.403 34.4122C110.744 34.1584 111.011 33.8175 111.176 33.4252L111.722 32.1796L109.102 18.209H113.079L114.232 27.1049L114.264 28.8044H114.657L115.324 27.1102Z" fill="#DB001E"/>
<path d="M134.393 28.5385C134.288 29.1772 134.053 29.7875 133.703 30.3321C133.353 30.8766 132.896 31.3439 132.359 31.7053C131.177 32.5296 129.762 32.9549 128.321 32.9192C126.683 32.9192 125.364 32.4847 124.363 31.6156C123.362 30.7465 122.841 29.471 122.801 27.7891L126.382 27.3035C126.464 29.0628 127.203 29.9425 128.598 29.9425C129.108 29.9595 129.609 29.8104 130.026 29.5176C130.211 29.3858 130.368 29.2186 130.488 29.0256C130.608 28.8326 130.689 28.6177 130.725 28.3934C130.788 28.1671 130.773 27.926 130.68 27.7099C130.562 27.4846 130.378 27.3005 130.153 27.1821C129.934 27.0472 129.706 26.9298 129.469 26.8311C129.266 26.752 128.955 26.6491 128.527 26.5277C128.427 26.4881 128.345 26.4564 128.284 26.4379C127.72 26.2743 127.252 26.1239 126.888 25.9814C126.462 25.8083 126.05 25.5999 125.659 25.3586C125.262 25.1365 124.905 24.8492 124.603 24.5089C124.336 24.1648 124.149 23.7654 124.057 23.3398C123.934 22.8112 123.924 22.2627 124.028 21.73C124.125 21.1092 124.348 20.5151 124.685 19.9847C125.022 19.4544 125.465 18.9992 125.986 18.6477C127.082 17.8948 128.422 17.5174 130.005 17.5156C133.304 17.5156 135.105 19.0436 135.409 22.0995L131.72 22.7988C131.641 21.2603 130.981 20.4924 129.749 20.4924C129.257 20.4719 128.77 20.5987 128.35 20.8565C128.179 20.9642 128.031 21.1059 127.916 21.2729C127.801 21.44 127.722 21.6288 127.683 21.8277C127.633 22.0246 127.646 22.232 127.72 22.4211C127.794 22.6102 127.925 22.7717 128.094 22.8833C128.607 23.2029 129.161 23.4507 129.741 23.6195C129.82 23.638 129.923 23.6697 130.044 23.7093C130.834 23.952 131.432 24.1596 131.836 24.3321C132.333 24.5578 132.806 24.8327 133.248 25.1528C133.752 25.4856 134.131 25.9767 134.325 26.5488C134.514 27.1959 134.537 27.88 134.393 28.5385Z" fill="#DB001E"/>
<path d="M142.408 21.2495L141.374 27.079C141.212 27.9885 141.222 28.5559 141.405 28.7811C141.588 29.0063 142.084 29.1171 142.894 29.1136H145.232L144.685 32.1801H141.286C139.809 32.1801 138.753 31.8282 138.12 31.1245C137.486 30.4208 137.324 29.1708 137.634 27.3745L138.727 21.2416H136.338L136.866 18.2094H139.297L139.993 14.1085L143.727 13.7812L142.936 18.2094H147.158L146.609 21.2442L142.408 21.2495Z" fill="#DB001E"/>
<path d="M150.325 28.0825C150.221 28.5892 150.342 28.9639 150.689 29.2067C151.115 29.4722 151.613 29.5994 152.114 29.5709C152.944 29.5915 153.754 29.3228 154.407 28.8108C155.028 28.3337 155.445 27.6401 155.576 26.8686H156.183C155.858 28.6508 155.154 30.0881 154.072 31.1806C153.583 31.7007 152.993 32.1146 152.337 32.3966C151.682 32.6785 150.975 32.8224 150.262 32.8194C148.965 32.8194 147.962 32.4394 147.253 31.6794C146.544 30.9194 146.292 29.943 146.496 28.7502C146.655 27.7387 147.17 26.8175 147.95 26.1534C148.71 25.5183 149.818 24.9976 151.275 24.5912L156.226 23.2717L155.801 25.6467L152.185 26.6205C151.072 26.9284 150.452 27.4157 150.325 28.0825ZM158.339 32.1808H154.645L156.286 28.6895L155.339 28.2382L156.281 22.9603C156.353 22.6914 156.356 22.4086 156.29 22.1382C156.224 21.8678 156.09 21.6186 155.901 21.4138C155.526 21.0286 154.975 20.8359 154.246 20.8359C153.518 20.8208 152.81 21.0745 152.257 21.5484C151.694 22.0361 151.287 22.6785 151.088 23.3957L147.535 22.9075C148.02 21.3806 148.971 20.0435 150.254 19.0836C151.577 18.0858 153.197 17.5616 154.853 17.5953C156.657 17.5953 158.033 18.0808 158.983 19.052C159.445 19.5134 159.783 20.0833 159.968 20.7093C160.152 21.3354 160.177 21.9977 160.039 22.6357L158.339 32.1808Z" fill="#DB001E"/>
<path d="M163.361 18.2084H167.035L165.486 21.8212L166.335 22.1669L164.575 32.1949H160.902L163.361 18.2084ZM171.278 23.6737C171.442 22.7606 171.349 22.0429 171.014 21.5177C170.679 20.9925 170.104 20.726 169.315 20.726C168.921 20.7149 168.53 20.7814 168.162 20.9218C167.794 21.0622 167.458 21.2736 167.172 21.5441C166.569 22.1373 166.18 22.9128 166.064 23.7503H165.515C165.866 21.8872 166.55 20.3917 167.565 19.264C168.011 18.7359 168.566 18.3114 169.193 18.0202C169.82 17.7289 170.503 17.5779 171.194 17.5777C171.683 17.5743 172.166 17.6931 172.599 17.9235C173.031 18.1539 173.399 18.4886 173.669 18.8972C173.984 19.3291 174.205 19.8225 174.318 20.3453C174.43 20.8681 174.431 21.4087 174.321 21.932L174.292 22.0851L175.202 22.349L173.471 32.187H169.777L171.278 23.6737ZM180.145 23.6737C180.305 22.7606 180.204 22.042 179.842 21.5177C179.477 20.9899 178.87 20.726 178.021 20.726C177.648 20.7186 177.278 20.7873 176.933 20.928C176.588 21.0686 176.276 21.2783 176.015 21.5441C175.443 22.1453 175.074 22.9103 174.959 23.7318H174.382C174.733 21.8476 175.432 20.3522 176.477 19.2456C176.969 18.7071 177.57 18.2797 178.241 17.9916C178.911 17.7036 179.635 17.5616 180.364 17.5751C181.72 17.5751 182.722 18.1214 183.37 19.2139C184.017 20.3064 184.189 21.6831 183.884 23.3439L182.338 32.1791H178.643L180.145 23.6737Z" fill="#DB001E"/>
<path d="M187.347 18.2092H191.041L189.4 21.7613L190.353 22.1677L189.297 28.2373L188.175 28.6305L188.59 32.1799L187.534 38.1307H183.855L187.347 18.2092ZM191.445 19.5604C191.971 18.9299 192.631 18.4243 193.377 18.0802C194.123 17.7361 194.936 17.562 195.757 17.5706C197.516 17.5706 198.827 18.2488 199.689 19.6053C200.551 20.9617 200.779 22.8037 200.373 25.1312C199.947 27.5591 199.026 29.4565 197.61 30.8235C196.193 32.1904 194.625 32.8739 192.904 32.8739C191.263 32.8739 190.104 32.2107 189.426 30.8842C188.749 29.5576 188.622 27.6699 189.046 25.221C189.472 22.7755 190.272 20.8904 191.445 19.5657V19.5604ZM192.448 29.6861C192.96 29.6999 193.469 29.6048 193.941 29.4068C194.413 29.2089 194.838 28.9128 195.187 28.5381C195.917 27.7675 196.408 26.6636 196.66 25.2262C196.911 23.7889 196.807 22.6858 196.348 21.917C195.894 21.1499 195.12 20.7655 194.026 20.7638C193.517 20.7547 193.013 20.8527 192.544 21.0514C192.076 21.2501 191.655 21.545 191.308 21.917C190.569 22.6876 190.074 23.7906 189.822 25.2262C189.571 26.6618 189.676 27.7658 190.139 28.5381C190.607 29.3069 191.376 29.6913 192.448 29.6913V29.6861Z" fill="#DB001E"/>
<path d="M10.5313 43.3471C3.56977 38.7447 3.51435 29.4583 10.0299 25.2175C13.7641 22.787 18.0629 22.2539 22.3196 21.5994C24.8424 21.2089 27.3943 20.9687 29.8881 20.4489C36.7151 19.0238 39.5414 17.2821 44.8325 11.4395C47.494 15.6487 48.7319 20.602 48.3634 25.5684C47.9402 31.8585 45.0639 37.7309 40.3538 41.9212C35.6437 46.1116 29.4765 48.2849 23.1799 47.9732C18.055 47.7462 15.9386 46.2948 14.7141 42.1675C13.5661 38.3067 15.0044 34.4644 18.5063 31.8755C20.6016 30.3291 22.9925 29.4715 25.4362 28.7088C29.0779 27.5608 32.6669 26.2836 35.6252 23.5549C33.1657 24.1856 30.722 24.8744 28.2361 25.4259C24.8055 26.1675 21.3062 26.6029 17.9231 27.4949C10.439 29.4715 7.29334 35.3616 10.1302 42.0566C10.2463 42.3311 10.3097 42.6267 10.5313 43.3471Z" fill="#DB001E"/>
<path d="M16.5643 13.7571C22.4598 12.7807 28.5478 13.2294 34.2453 11.1472C37.6259 9.90955 38.7316 8.38159 38.7712 4.99845C42.3892 7.26268 42.5264 9.88844 39.072 12.4245C35.6783 14.9157 31.6618 15.6546 27.6268 16.309C23.1406 17.0374 18.5858 17.2617 14.1682 18.473C7.70271 20.2516 3.0344 23.8538 1.53547 31.3484C-0.858066 22.405 0.601277 14.7784 6.33837 8.24701C12.408 1.34349 20.1955 -1.13713 29.2498 0.472637C31.2924 0.836813 32.8493 1.94518 33.3428 4.02995C33.8363 6.11473 32.4509 7.33129 30.981 8.35784C28.5109 10.0864 25.6107 10.754 22.7553 11.5061C20.631 12.0682 18.467 12.5274 16.5643 13.7571Z" fill="#DB001E"/>
</g>
<defs>
<clipPath id="clip0_454_18910">
<rect width="200.136" height="48" fill="white" transform="translate(0.432068)"/>
</clipPath>
</defs>
</svg>
