<svg width="151" height="36" viewBox="0 0 151 36" fill="none" xmlns="http://www.w3.org/2000/svg">
<path d="M49.8186 16.5522L49.7513 16.8471C50.708 17.045 51.4291 17.4587 51.9146 18.0881C52.1564 18.4074 52.3263 18.7753 52.4127 19.1664C52.4992 19.5576 52.5001 19.9628 52.4154 20.3543C52.2174 21.4943 51.5874 22.4094 50.5252 23.0994C49.463 23.7895 48.1271 24.1346 46.5173 24.1346H40.4827L43.1249 9.24096H49.1378C50.7462 9.24096 51.9232 9.59062 52.6687 10.2899C53.4142 10.9893 53.6781 11.9301 53.4604 13.1123C53.324 13.9776 52.9067 14.7739 52.2729 15.3785C51.5953 16.0133 50.7381 16.4232 49.8186 16.5522ZM43.693 21.5398H46.7212C48.5447 21.5398 49.562 20.9553 49.7731 19.7862C49.88 19.1925 49.7283 18.7445 49.3179 18.4423C48.9075 18.1402 48.2537 17.9884 47.3565 17.9871H44.3303L43.693 21.5398ZM44.7835 15.3904H47.8137C49.4683 15.3904 50.4018 14.7834 50.6143 13.5695C50.7185 12.9612 50.6011 12.5172 50.262 12.2375C49.9229 11.9578 49.3113 11.8172 48.4272 11.8159H45.399L44.7835 15.3904Z" fill="#3E2F8A"/>
<path d="M56.5361 19.6259C56.4609 20.4611 56.6093 21.0991 56.9814 21.5398C57.3535 21.9805 57.9341 22.2002 58.7231 22.1989C59.2792 22.2088 59.8258 22.0546 60.2946 21.7555C60.7445 21.4658 61.0882 21.038 61.2744 20.5363L63.8929 20.946C63.4538 22.0468 62.6859 22.9854 61.6939 23.6338C60.6833 24.2959 59.4977 24.6405 58.2897 24.6234C56.606 24.6234 55.369 24.1108 54.5787 23.0856C53.7883 22.0603 53.5528 20.6525 53.8721 18.8619C54.1901 17.1004 54.8999 15.7077 56.0017 14.6838C57.1028 13.6581 58.5627 13.1058 60.067 13.1459C61.6755 13.1459 62.8518 13.6586 63.596 14.6838C64.3402 15.709 64.5678 17.0562 64.2788 18.7254L64.1205 19.6358L56.5361 19.6259ZM56.9003 17.7595H61.6504C61.7138 17.4783 61.7097 17.1861 61.6385 16.9068C61.5672 16.6274 61.4309 16.3689 61.2407 16.1524C60.8607 15.7367 60.3224 15.5269 59.6237 15.5269C59.0111 15.5135 58.4138 15.7192 57.9394 16.1069C57.4397 16.545 57.0786 17.1193 56.9003 17.7595Z" fill="#3E2F8A"/>
<path d="M66.7152 13.6566H69.4723L68.2412 16.3206L68.9478 16.6254L67.6277 24.1465H64.8706L66.7152 13.6566ZM71.7266 16.0693C71.0041 16.0688 70.3007 16.3021 69.7217 16.7343C69.4383 16.925 69.1958 17.1703 69.0082 17.4557C68.8207 17.7411 68.6918 18.0611 68.6291 18.3968L68.4015 17.6447C68.6126 16.3859 69.091 15.3805 69.8365 14.6284C70.1779 14.2679 70.59 13.9816 71.047 13.7875C71.504 13.5934 71.9961 13.4956 72.4926 13.5002H73.3575L72.924 16.0732L71.7266 16.0693Z" fill="#3E2F8A"/>
<path d="M74.6399 13.6566H77.397L76.1659 16.3206L76.8725 16.6254L75.5523 24.1465H72.7953L74.6399 13.6566ZM79.6513 16.0693C78.926 16.0669 78.2195 16.3003 77.6384 16.7343C77.3551 16.925 77.1126 17.1703 76.925 17.4557C76.7374 17.7412 76.6086 18.0611 76.5459 18.3968L76.3183 17.6447C76.5307 16.386 77.009 15.3805 77.7532 14.6284C78.0956 14.2669 78.5089 13.9801 78.9674 13.786C79.4258 13.5918 79.9194 13.4946 80.4173 13.5003H81.2822L80.8487 16.0732L79.6513 16.0693Z" fill="#3E2F8A"/>
<path d="M86.6182 20.3325L89.8068 13.6566H92.7894L86.258 26.0445C85.8977 26.7754 85.3568 27.4021 84.6865 27.8654C84.0971 28.2752 83.3974 28.4967 82.6796 28.5007H79.9918L80.4094 26.0247H82.072C82.3719 26.0377 82.6691 25.9627 82.927 25.809C83.1831 25.6187 83.3834 25.363 83.5069 25.0688L83.9166 24.1346L81.9512 13.6566H84.9339L85.7988 20.3286L85.8226 21.6032H86.1175L86.6182 20.3325Z" fill="#3E2F8A"/>
<path d="M100.92 21.4033C100.841 21.8822 100.665 22.34 100.402 22.7484C100.14 23.1568 99.7968 23.5073 99.3941 23.7783C98.5074 24.3966 97.4465 24.7155 96.3659 24.6888C95.1374 24.6888 94.1478 24.3628 93.397 23.711C92.6463 23.0592 92.2557 22.1026 92.2253 20.8412L94.9111 20.477C94.9732 21.7965 95.5273 22.4562 96.5737 22.4562C96.9557 22.469 97.3315 22.3571 97.6444 22.1375C97.7833 22.0387 97.9011 21.9133 97.9912 21.7685C98.0812 21.6238 98.1416 21.4626 98.1689 21.2944C98.2163 21.1247 98.2044 20.9439 98.1353 20.7818C98.0465 20.6128 97.9084 20.4747 97.7394 20.3859C97.5758 20.2848 97.4044 20.1967 97.2268 20.1227C97.0744 20.0633 96.8409 19.9861 96.5202 19.8951C96.445 19.8654 96.3837 19.8417 96.3382 19.8278C95.9146 19.7051 95.5643 19.5923 95.2911 19.4854C94.9713 19.3555 94.6628 19.1993 94.3688 19.0183C94.0711 18.8517 93.8035 18.6363 93.5771 18.381C93.3769 18.123 93.2369 17.8234 93.1674 17.5042C93.0753 17.1078 93.0679 16.6964 93.1457 16.2969C93.2183 15.8313 93.3862 15.3856 93.6389 14.9879C93.8916 14.5901 94.2236 14.2488 94.6143 13.9851C95.4363 13.4204 96.4411 13.1374 97.6286 13.1361C100.103 13.1361 101.454 14.282 101.682 16.574L98.9151 17.0985C98.8557 15.9446 98.3609 15.3686 97.4366 15.3686C97.0676 15.3533 96.7023 15.4484 96.3876 15.6418C96.2588 15.7225 96.1479 15.8288 96.0618 15.9541C95.9757 16.0793 95.9162 16.2209 95.8869 16.3701C95.8499 16.5178 95.8598 16.6733 95.9151 16.8151C95.9704 16.957 96.0685 17.0781 96.1957 17.1618C96.5801 17.4015 96.9957 17.5873 97.4307 17.714C97.4901 17.7278 97.5672 17.7516 97.6583 17.7813C98.2507 17.9634 98.6987 18.1191 99.0022 18.2484C99.3748 18.4177 99.7296 18.6239 100.061 18.8639C100.439 19.1135 100.723 19.4819 100.869 19.9109C101.01 20.3962 101.028 20.9093 100.92 21.4033Z" fill="#3E2F8A"/>
<path d="M106.931 15.9367L106.155 20.3088C106.034 20.9909 106.042 21.4165 106.179 21.5854C106.316 21.7543 106.688 21.8374 107.295 21.8347H109.049L108.639 24.1346H106.09C104.981 24.1346 104.19 23.8707 103.715 23.3429C103.24 22.8151 103.118 21.8776 103.35 20.5304L104.17 15.9307H102.379L102.775 13.6566H104.597L105.12 10.5809L107.92 10.3355L107.327 13.6566H110.493L110.082 15.9327L106.931 15.9367Z" fill="#3E2F8A"/>
<path d="M112.869 21.0609C112.791 21.4409 112.882 21.7219 113.142 21.904C113.461 22.1031 113.835 22.1985 114.211 22.1772C114.833 22.1926 115.441 21.9911 115.93 21.6071C116.396 21.2492 116.709 20.7291 116.807 20.1504H117.262C117.018 21.4871 116.491 22.5651 115.679 23.3845C115.313 23.7745 114.87 24.085 114.378 24.2964C113.886 24.5079 113.356 24.6158 112.821 24.6136C111.849 24.6136 111.097 24.3286 110.565 23.7585C110.033 23.1885 109.844 22.4562 109.997 21.5616C110.116 20.803 110.503 20.1121 111.087 19.6141C111.657 19.1377 112.489 18.7472 113.581 18.4424L117.294 17.4528L116.975 19.2341L114.264 19.9644C113.429 20.1953 112.964 20.5608 112.869 21.0609ZM118.879 24.1346H116.109L117.34 21.5161L116.629 21.1776L117.336 17.2192C117.39 17.0175 117.392 16.8054 117.342 16.6026C117.293 16.3998 117.192 16.2129 117.051 16.0594C116.77 15.7704 116.356 15.6259 115.81 15.6259C115.263 15.6146 114.732 15.8048 114.317 16.1603C113.895 16.5261 113.591 17.0079 113.441 17.5458L110.777 17.1796C111.14 16.0344 111.853 15.0316 112.815 14.3117C113.807 13.5633 115.022 13.1702 116.265 13.1955C117.617 13.1955 118.65 13.5596 119.362 14.288C119.709 14.6341 119.962 15.0614 120.101 15.531C120.239 16.0006 120.257 16.4973 120.154 16.9758L118.879 24.1346Z" fill="#3E2F8A"/>
<path d="M122.646 13.6566H125.401L124.239 16.3662L124.876 16.6254L123.556 24.1465H120.801L122.646 13.6566ZM128.584 17.7556C128.706 17.0708 128.637 16.5324 128.386 16.1385C128.134 15.7447 127.703 15.5448 127.111 15.5448C126.816 15.5364 126.522 15.5863 126.246 15.6916C125.971 15.7969 125.718 15.9555 125.504 16.1583C125.052 16.6032 124.76 17.1849 124.673 17.813H124.261C124.525 16.4156 125.037 15.2941 125.799 14.4483C126.133 14.0522 126.55 13.7338 127.02 13.5154C127.49 13.297 128.002 13.1837 128.52 13.1836C128.888 13.181 129.25 13.2701 129.574 13.4429C129.898 13.6157 130.174 13.8667 130.377 14.1732C130.613 14.4971 130.779 14.8671 130.863 15.2592C130.947 15.6514 130.948 16.0568 130.866 16.4493L130.844 16.5641L131.527 16.762L130.228 24.1405H127.457L128.584 17.7556ZM135.234 17.7556C135.354 17.0708 135.278 16.5317 135.006 16.1385C134.733 15.7427 134.278 15.5448 133.64 15.5448C133.361 15.5392 133.084 15.5907 132.825 15.6962C132.566 15.8017 132.332 15.959 132.136 16.1583C131.708 16.6092 131.431 17.183 131.345 17.7991H130.911C131.175 16.3859 131.699 15.2644 132.483 14.4344C132.852 14.0306 133.303 13.71 133.805 13.494C134.308 13.278 134.851 13.1715 135.398 13.1816C136.415 13.1816 137.167 13.5913 137.652 14.4107C138.138 15.2301 138.267 16.2626 138.038 17.5082L136.878 24.1346H134.108L135.234 17.7556Z" fill="#3E2F8A"/>
<path d="M140.635 13.6566H143.406L142.175 16.3206L142.889 16.6254L142.098 21.1776L141.256 21.4725L141.567 24.1346L140.776 28.5977H138.016L140.635 13.6566ZM143.709 14.67C144.104 14.1971 144.598 13.8179 145.158 13.5598C145.717 13.3017 146.327 13.1712 146.943 13.1776C148.262 13.1776 149.245 13.6863 149.892 14.7036C150.538 15.7209 150.709 17.1024 150.404 18.8481C150.085 20.669 149.394 22.092 148.332 23.1173C147.27 24.1425 146.094 24.6551 144.803 24.6551C143.572 24.6551 142.703 24.1577 142.195 23.1628C141.687 22.1679 141.592 20.7521 141.91 18.9154C142.229 17.0813 142.829 15.6675 143.709 14.6739V14.67ZM144.461 22.2642C144.845 22.2746 145.226 22.2032 145.581 22.0548C145.935 21.9064 146.253 21.6843 146.515 21.4033C147.063 20.8253 147.431 19.9974 147.62 18.9193C147.808 17.8413 147.73 17.014 147.386 16.4374C147.046 15.8621 146.465 15.5738 145.644 15.5725C145.263 15.5657 144.884 15.6392 144.533 15.7882C144.182 15.9372 143.866 16.1584 143.606 16.4374C143.052 17.0153 142.68 17.8426 142.491 18.9193C142.303 19.996 142.382 20.824 142.729 21.4033C143.08 21.9799 143.657 22.2682 144.461 22.2682V22.2642Z" fill="#3E2F8A"/>
<path d="M8.02343 32.5107C2.80225 29.0589 2.76069 22.094 7.64738 18.9134C10.448 17.0906 13.6721 16.6908 16.8646 16.1999C18.7567 15.907 20.6706 15.7269 22.541 15.337C27.6612 14.2682 29.781 12.9619 33.7493 8.57993C35.7454 11.7368 36.6738 15.4518 36.3975 19.1767C36.08 23.8942 33.9228 28.2985 30.3902 31.4413C26.8577 34.584 22.2323 36.214 17.5098 35.9802C13.6662 35.81 12.0788 34.7214 11.1605 31.6259C10.2995 28.7303 11.3782 25.8486 14.0046 23.907C15.5761 22.7472 17.3693 22.1039 19.2021 21.5319C21.9334 20.671 24.6251 19.713 26.8438 17.6665C24.9992 18.1396 23.1664 18.6561 21.302 19.0698C18.729 19.6259 16.1046 19.9525 13.5672 20.6215C7.95416 22.1039 5.59493 26.5215 7.72259 31.5428C7.80967 31.7487 7.85717 31.9703 8.02343 32.5107Z" fill="#3E2F8A"/>
<path d="M12.5483 10.3174C16.9699 9.58505 21.536 9.92152 25.8091 8.35991C28.3445 7.43166 29.1738 6.28569 29.2034 3.74833C31.917 5.4465 32.0199 7.41582 29.4291 9.31785C26.8838 11.1862 23.8714 11.7404 20.8452 12.2313C17.4805 12.7775 14.0644 12.9458 10.7512 13.8542C5.90211 15.1882 2.40087 17.8898 1.27668 23.5108C-0.518473 16.8033 0.576034 11.0833 4.87885 6.18475C9.43106 1.00712 15.2717 -0.853349 22.0624 0.353974C23.5943 0.627106 24.7621 1.45838 25.1322 3.02196C25.5023 4.58554 24.4632 5.49796 23.3608 6.26788C21.5082 7.56427 19.3331 8.06501 17.1916 8.62908C15.5983 9.05066 13.9753 9.39504 12.5483 10.3174Z" fill="#3E2F8A"/>
</svg>
