<svg width="26" height="24" viewBox="0 0 26 24" fill="none" xmlns="http://www.w3.org/2000/svg">
<path d="M20.5 7.5C20.5 7.10218 20.342 6.72064 20.0607 6.43934C19.7794 6.15804 19.3978 6 19 6H15.25L20.5 15" stroke="#838492" stroke-width="1.6" stroke-linecap="round" stroke-linejoin="round"/>
<path d="M20.5 18.75C22.5711 18.75 24.25 17.0711 24.25 15C24.25 12.9289 22.5711 11.25 20.5 11.25C18.4289 11.25 16.75 12.9289 16.75 15C16.75 17.0711 18.4289 18.75 20.5 18.75Z" stroke="#838492" stroke-width="1.6" stroke-linecap="round" stroke-linejoin="round"/>
<path d="M5.5 18.75C7.57107 18.75 9.25 17.0711 9.25 15C9.25 12.9289 7.57107 11.25 5.5 11.25C3.42893 11.25 1.75 12.9289 1.75 15C1.75 17.0711 3.42893 18.75 5.5 18.75Z" stroke="#838492" stroke-width="1.6" stroke-linecap="round" stroke-linejoin="round"/>
<path d="M5.5 6H8.125L13.375 15" stroke="#838492" stroke-width="1.6" stroke-linecap="round" stroke-linejoin="round"/>
<path d="M16.9469 9H9.87812L5.5 15" stroke="#838492" stroke-width="1.6" stroke-linecap="round" stroke-linejoin="round"/>
</svg>
