<svg width="40" height="40" viewBox="0 0 40 40" fill="none" xmlns="http://www.w3.org/2000/svg">
<rect width="40" height="40" rx="20" fill="#FFFBFF"/>
<rect width="40" height="40" rx="20" fill="#52000B" fill-opacity="0.024"/>
<mask id="mask0_1390_21701" style="mask-type:alpha" maskUnits="userSpaceOnUse" x="8" y="8" width="24" height="24">
<rect x="8" y="8" width="24" height="24" fill="#D9D9D9"/>
</mask>
<g mask="url(#mask0_1390_21701)">
<path d="M15 22C14.45 22 13.9792 21.8042 13.5875 21.4125C13.1958 21.0208 13 20.55 13 20C13 19.45 13.1958 18.9792 13.5875 18.5875C13.9792 18.1958 14.45 18 15 18C15.55 18 16.0208 18.1958 16.4125 18.5875C16.8042 18.9792 17 19.45 17 20C17 20.55 16.8042 21.0208 16.4125 21.4125C16.0208 21.8042 15.55 22 15 22ZM15 26C13.3333 26 11.9167 25.4167 10.75 24.25C9.58333 23.0833 9 21.6667 9 20C9 18.3333 9.58333 16.9167 10.75 15.75C11.9167 14.5833 13.3333 14 15 14C16.1167 14 17.1292 14.275 18.0375 14.825C18.9458 15.375 19.6667 16.1 20.2 17H29L32 20L27.5 24.5L25.5 23L23.5 24.5L21.375 23H20.2C19.6667 23.9 18.9458 24.625 18.0375 25.175C17.1292 25.725 16.1167 26 15 26ZM15 24C15.9333 24 16.7542 23.7167 17.4625 23.15C18.1708 22.5833 18.6417 21.8667 18.875 21H22L23.45 22.025L25.5 20.5L27.275 21.875L29.15 20L28.15 19H18.875C18.6417 18.1333 18.1708 17.4167 17.4625 16.85C16.7542 16.2833 15.9333 16 15 16C13.9 16 12.9583 16.3917 12.175 17.175C11.3917 17.9583 11 18.9 11 20C11 21.1 11.3917 22.0417 12.175 22.825C12.9583 23.6083 13.9 24 15 24Z" fill="#AA0017"/>
</g>
</svg>
