<svg width="25" height="25" viewBox="0 0 25 25" fill="none" xmlns="http://www.w3.org/2000/svg">
<mask id="mask0_1570_15766" style="mask-type:alpha" maskUnits="userSpaceOnUse" x="0" y="0" width="25" height="25">
<rect x="0.375" y="0.666992" width="24" height="24" fill="#D9D9D9"/>
</mask>
<g mask="url(#mask0_1570_15766)">
<path d="M2.375 22.667V4.66699C2.375 4.11699 2.571 3.64599 2.963 3.25399C3.35433 2.86266 3.825 2.66699 4.375 2.66699H20.375C20.925 2.66699 21.396 2.86266 21.788 3.25399C22.1793 3.64599 22.375 4.11699 22.375 4.66699V16.667C22.375 17.217 22.1793 17.688 21.788 18.08C21.396 18.4713 20.925 18.667 20.375 18.667H6.375L2.375 22.667ZM4.375 17.842L5.55 16.667H20.375V4.66699H4.375V17.842Z" fill="#838492"/>
</g>
</svg>
