<svg width="24" height="24" viewBox="0 0 24 24" fill="none" xmlns="http://www.w3.org/2000/svg">
<mask id="mask0_1533_25278" style="mask-type:alpha" maskUnits="userSpaceOnUse" x="0" y="0" width="24" height="24">
<rect width="24" height="24" fill="#D9D9D9"/>
</mask>
<g mask="url(#mask0_1533_25278)">
<path d="M6 17C5.35 17 4.771 16.8127 4.263 16.438C3.75433 16.0627 3.4 15.5833 3.2 15H3C2.45 15 1.97933 14.804 1.588 14.412C1.196 14.0207 1 13.55 1 13V5C1 4.45 1.196 3.979 1.588 3.587C1.97933 3.19567 2.45 3 3 3H15.05C15.35 3 15.6333 3.05833 15.9 3.175C16.1667 3.29167 16.4 3.46667 16.6 3.7L20.55 8.45C20.7 8.63333 20.8127 8.829 20.888 9.037C20.9627 9.24567 21 9.46667 21 9.7V11.15C21.5833 11.35 22.0627 11.7123 22.438 12.237C22.8127 12.7623 23 13.35 23 14C23 14.8333 22.7083 15.5417 22.125 16.125C21.5417 16.7083 20.8333 17 20 17C19.35 17 18.7627 16.8127 18.238 16.438C17.7127 16.0627 17.35 15.5833 17.15 15H8.85C8.61667 15.5833 8.246 16.0627 7.738 16.438C7.22933 16.8127 6.65 17 6 17ZM3 8H7V5H3V8ZM9 13H14V5H9V8H12V10H9V13ZM16 9H18.4L16 6.1V9ZM6 15C6.28333 15 6.521 14.904 6.713 14.712C6.90433 14.5207 7 14.2833 7 14C7 13.7167 6.90433 13.479 6.713 13.287C6.521 13.0957 6.28333 13 6 13C5.71667 13 5.479 13.0957 5.287 13.287C5.09567 13.479 5 13.7167 5 14C5 14.2833 5.09567 14.5207 5.287 14.712C5.479 14.904 5.71667 15 6 15ZM20 15C20.2833 15 20.5207 14.904 20.712 14.712C20.904 14.5207 21 14.2833 21 14C21 13.7167 20.904 13.479 20.712 13.287C20.5207 13.0957 20.2833 13 20 13C19.7167 13 19.4793 13.0957 19.288 13.287C19.096 13.479 19 13.7167 19 14C19 14.2833 19.096 14.5207 19.288 14.712C19.4793 14.904 19.7167 15 20 15ZM13 23L7 20H11V18L17 21H13V23ZM3 10V13H3.15C3.38333 12.4167 3.75433 11.9373 4.263 11.562C4.771 11.1873 5.35 11 6 11C6.18333 11 6.35833 11.0123 6.525 11.037C6.69167 11.0623 6.85 11.1 7 11.15V10H3ZM16 13H17.15C17.3 12.5667 17.5377 12.1877 17.863 11.863C18.1877 11.5377 18.5667 11.3 19 11.15V11H16V13Z" fill="#838492"/>
</g>
</svg>
