<svg width="60" height="61" viewBox="0 0 60 61" fill="none" xmlns="http://www.w3.org/2000/svg">
<rect y="0.5" width="60" height="60" rx="30" fill="#FFDAD6"/>
<mask id="mask0_439_21656" style="mask-type:alpha" maskUnits="userSpaceOnUse" x="12" y="12" width="36" height="37">
<rect x="12" y="12.5" width="36" height="36" fill="#D9D9D9"/>
</mask>
<g mask="url(#mask0_439_21656)">
<path d="M35.25 29C35.875 29 36.4062 28.7812 36.8438 28.3438C37.2812 27.9062 37.5 27.375 37.5 26.75C37.5 26.125 37.2812 25.5938 36.8438 25.1562C36.4062 24.7188 35.875 24.5 35.25 24.5C34.625 24.5 34.0938 24.7188 33.6562 25.1562C33.2188 25.5938 33 26.125 33 26.75C33 27.375 33.2188 27.9062 33.6562 28.3438C34.0938 28.7812 34.625 29 35.25 29ZM24.75 29C25.375 29 25.9062 28.7812 26.3438 28.3438C26.7812 27.9062 27 27.375 27 26.75C27 26.125 26.7812 25.5938 26.3438 25.1562C25.9062 24.7188 25.375 24.5 24.75 24.5C24.125 24.5 23.5938 24.7188 23.1562 25.1562C22.7188 25.5938 22.5 26.125 22.5 26.75C22.5 27.375 22.7188 27.9062 23.1562 28.3438C23.5938 28.7812 24.125 29 24.75 29ZM30 32.75C28.3 32.75 26.7562 33.2313 25.3687 34.1938C23.9812 35.1562 22.975 36.425 22.35 38H24.825C25.375 37.075 26.1062 36.3438 27.0187 35.8063C27.9312 35.2688 28.925 35 30 35C31.075 35 32.0688 35.2688 32.9813 35.8063C33.8938 36.3438 34.625 37.075 35.175 38H37.65C37.025 36.425 36.0188 35.1562 34.6313 34.1938C33.2438 33.2313 31.7 32.75 30 32.75ZM30 45.5C27.925 45.5 25.975 45.1062 24.15 44.3187C22.325 43.5312 20.7375 42.4625 19.3875 41.1125C18.0375 39.7625 16.9688 38.175 16.1813 36.35C15.3937 34.525 15 32.575 15 30.5C15 28.425 15.3937 26.475 16.1813 24.65C16.9688 22.825 18.0375 21.2375 19.3875 19.8875C20.7375 18.5375 22.325 17.4688 24.15 16.6813C25.975 15.8937 27.925 15.5 30 15.5C32.075 15.5 34.025 15.8937 35.85 16.6813C37.675 17.4688 39.2625 18.5375 40.6125 19.8875C41.9625 21.2375 43.0312 22.825 43.8187 24.65C44.6062 26.475 45 28.425 45 30.5C45 32.575 44.6062 34.525 43.8187 36.35C43.0312 38.175 41.9625 39.7625 40.6125 41.1125C39.2625 42.4625 37.675 43.5312 35.85 44.3187C34.025 45.1062 32.075 45.5 30 45.5ZM30 42.5C33.35 42.5 36.1875 41.3375 38.5125 39.0125C40.8375 36.6875 42 33.85 42 30.5C42 27.15 40.8375 24.3125 38.5125 21.9875C36.1875 19.6625 33.35 18.5 30 18.5C26.65 18.5 23.8125 19.6625 21.4875 21.9875C19.1625 24.3125 18 27.15 18 30.5C18 33.85 19.1625 36.6875 21.4875 39.0125C23.8125 41.3375 26.65 42.5 30 42.5Z" fill="#BA1A1A"/>
</g>
</svg>
