<svg width="25" height="25" viewBox="0 0 25 25" fill="none" xmlns="http://www.w3.org/2000/svg">
<mask id="mask0_1602_15750" style="mask-type:alpha" maskUnits="userSpaceOnUse" x="0" y="0" width="25" height="25">
<rect x="0.625" y="0.666992" width="24" height="24" fill="#D9D9D9"/>
</mask>
<g mask="url(#mask0_1602_15750)">
<path d="M3.625 20.667V9.36699C3.34167 9.18366 3.10433 8.95033 2.913 8.66699C2.721 8.38366 2.625 8.05033 2.625 7.66699V4.66699C2.625 4.11699 2.821 3.64599 3.213 3.25399C3.60433 2.86266 4.075 2.66699 4.625 2.66699H20.625C21.175 2.66699 21.646 2.86266 22.038 3.25399C22.4293 3.64599 22.625 4.11699 22.625 4.66699V7.66699C22.625 8.05033 22.529 8.38366 22.337 8.66699C22.1457 8.95033 21.9083 9.18366 21.625 9.36699V20.667C21.625 21.217 21.4293 21.688 21.038 22.08C20.646 22.4713 20.175 22.667 19.625 22.667H5.625C5.075 22.667 4.604 22.4713 4.212 22.08C3.82067 21.688 3.625 21.217 3.625 20.667ZM5.625 9.66699V20.667H19.625V9.66699H5.625ZM20.625 7.66699V4.66699H4.625V7.66699H20.625ZM9.625 14.667H15.625V12.667H9.625V14.667Z" fill="#838492"/>
</g>
</svg>
