<svg width="40" height="40" viewBox="0 0 40 40" fill="none" xmlns="http://www.w3.org/2000/svg">
<rect width="40" height="40" rx="20" fill="#AA0017" fill-opacity="0.04"/>
<mask id="mask0_1503_18730" style="mask-type:alpha" maskUnits="userSpaceOnUse" x="10" y="10" width="20" height="20">
<rect x="10" y="10" width="20" height="20" fill="#D9D9D9"/>
</mask>
<g mask="url(#mask0_1503_18730)">
<path d="M19.1667 27.5002H14.1667C13.7083 27.5002 13.3158 27.3371 12.9892 27.011C12.6631 26.6843 12.5 26.2918 12.5 25.8335V14.1668C12.5 13.7085 12.6631 13.316 12.9892 12.9893C13.3158 12.6632 13.7083 12.5002 14.1667 12.5002H17.6458C17.7986 12.0141 18.0972 11.6146 18.5417 11.3018C18.9861 10.9896 19.4722 10.8335 20 10.8335C20.5556 10.8335 21.0522 10.9896 21.49 11.3018C21.9272 11.6146 22.2222 12.0141 22.375 12.5002H25.8333C26.2917 12.5002 26.6842 12.6632 27.0108 12.9893C27.3369 13.316 27.5 13.7085 27.5 14.1668V18.3335H25.8333V14.1668H24.1667V16.6668H15.8333V14.1668H14.1667V25.8335H19.1667V27.5002ZM22.9167 26.6043L19.375 23.0627L20.5417 21.896L22.9167 24.271L27.625 19.5627L28.7917 20.7293L22.9167 26.6043ZM20 14.1668C20.2361 14.1668 20.4342 14.0868 20.5942 13.9268C20.7536 13.7674 20.8333 13.5696 20.8333 13.3335C20.8333 13.0974 20.7536 12.8993 20.5942 12.7393C20.4342 12.5799 20.2361 12.5002 20 12.5002C19.7639 12.5002 19.5661 12.5799 19.4067 12.7393C19.2467 12.8993 19.1667 13.0974 19.1667 13.3335C19.1667 13.5696 19.2467 13.7674 19.4067 13.9268C19.5661 14.0868 19.7639 14.1668 20 14.1668Z" fill="#AA0017"/>
</g>
</svg>
