<svg width="145" height="78" viewBox="0 0 145 78" fill="none" xmlns="http://www.w3.org/2000/svg">
<g filter="url(#filter0_d_764_45134)">
<path d="M22.5 3H135C136.105 3 137.165 3.43899 137.946 4.22039C138.728 5.00179 139.167 6.0616 139.167 7.16667V28C139.167 29.1051 138.728 30.1649 137.946 30.9463C137.165 31.7277 136.105 32.1667 135 32.1667H22.5C21.3949 32.1667 20.3351 31.7277 19.5537 30.9463C18.7723 30.1649 18.3333 29.1051 18.3333 28V7.16667C18.3333 6.0616 18.7723 5.00179 19.5537 4.22039C20.3351 3.43899 21.3949 3 22.5 3V3Z" fill="white"/>
</g>
<path d="M75.8333 9.66699H54.1666C52.7859 9.66699 51.6666 10.7863 51.6666 12.167C51.6666 13.5477 52.7859 14.667 54.1666 14.667H75.8333C77.214 14.667 78.3333 13.5477 78.3333 12.167C78.3333 10.7863 77.214 9.66699 75.8333 9.66699Z" fill="#838492"/>
<path d="M90.8331 20.5H54.1664C52.7857 20.5 51.6664 21.6193 51.6664 23C51.6664 24.3807 52.7857 25.5 54.1664 25.5H90.8331C92.2138 25.5 93.3331 24.3807 93.3331 23C93.3331 21.6193 92.2138 20.5 90.8331 20.5Z" fill="#D8D5E8"/>
<path d="M45 17.5833C45 10.9099 39.5901 5.5 32.9166 5.5C26.2432 5.5 20.8333 10.9099 20.8333 17.5833C20.8333 24.2568 26.2432 29.6667 32.9166 29.6667C39.5901 29.6667 45 24.2568 45 17.5833Z" fill="#838492"/>
<path d="M32.1668 21.4954C33.2013 21.4952 34.206 21.1491 35.021 20.512L37.5835 23.0745L38.4077 22.2504L35.8443 19.687C36.4884 18.8544 36.8314 17.8281 36.8175 16.7756C36.8036 15.723 36.4336 14.7062 35.7678 13.8908C35.1021 13.0754 34.1798 12.5096 33.1513 12.2855C32.1227 12.0614 31.0486 12.1923 30.104 12.6568C29.1594 13.1213 28.3999 13.892 27.9494 14.8434C27.4989 15.7948 27.3839 16.8707 27.6231 17.8958C27.8624 18.9209 28.4418 19.8348 29.2669 20.4884C30.092 21.1421 31.1142 21.497 32.1668 21.4954ZM32.1668 13.3337C32.8591 13.3337 33.5358 13.539 34.1113 13.9236C34.6869 14.3082 35.1355 14.8548 35.4004 15.4943C35.6653 16.1339 35.7346 16.8376 35.5996 17.5165C35.4645 18.1955 35.1312 18.8191 34.6417 19.3086C34.1522 19.7981 33.5286 20.1314 32.8497 20.2665C32.1707 20.4015 31.467 20.3322 30.8274 20.0673C30.1879 19.8024 29.6413 19.3538 29.2567 18.7782C28.8721 18.2026 28.6668 17.5259 28.6668 16.8337C28.6668 15.9055 29.0356 15.0152 29.692 14.3588C30.3483 13.7025 31.2386 13.3337 32.1668 13.3337Z" fill="white"/>
<g filter="url(#filter1_d_764_45134)">
<path d="M122.5 40.5H9.99998C7.69879 40.5 5.83331 42.3655 5.83331 44.6667V65.5C5.83331 67.8012 7.69879 69.6667 9.99998 69.6667H122.5C124.801 69.6667 126.667 67.8012 126.667 65.5V44.6667C126.667 42.3655 124.801 40.5 122.5 40.5Z" fill="white"/>
</g>
<path d="M63.3333 47.167H41.6666C40.2859 47.167 39.1666 48.2863 39.1666 49.667C39.1666 51.0477 40.2859 52.167 41.6666 52.167H63.3333C64.714 52.167 65.8333 51.0477 65.8333 49.667C65.8333 48.2863 64.714 47.167 63.3333 47.167Z" fill="#838492"/>
<path d="M78.3331 58H41.6664C40.2857 58 39.1664 59.1193 39.1664 60.5C39.1664 61.8807 40.2857 63 41.6664 63H78.3331C79.7138 63 80.8331 61.8807 80.8331 60.5C80.8331 59.1193 79.7138 58 78.3331 58Z" fill="#D8D5E8"/>
<path d="M32.5 55.0833C32.5 48.4099 27.0901 43 20.4166 43C13.7432 43 8.33331 48.4099 8.33331 55.0833C8.33331 61.7568 13.7432 67.1667 20.4166 67.1667C27.0901 67.1667 32.5 61.7568 32.5 55.0833Z" fill="#838492"/>
<path d="M19.6668 58.9954C20.7013 58.9952 21.706 58.6491 22.521 58.012L25.0835 60.5745L25.9077 59.7504L23.3443 57.187C23.9884 56.3544 24.3314 55.3281 24.3175 54.2756C24.3036 53.223 23.9336 52.2062 23.2678 51.3908C22.6021 50.5754 21.6798 50.0096 20.6513 49.7855C19.6227 49.5614 18.5486 49.6923 17.604 50.1568C16.6594 50.6213 15.8999 51.392 15.4494 52.3434C14.9989 53.2948 14.8839 54.3707 15.1231 55.3958C15.3624 56.4209 15.9418 57.3348 16.7669 57.9884C17.592 58.6421 18.6142 58.997 19.6668 58.9954ZM19.6668 50.8337C20.3591 50.8337 21.0358 51.039 21.6113 51.4236C22.1869 51.8082 22.6355 52.3548 22.9004 52.9943C23.1653 53.6339 23.2346 54.3376 23.0996 55.0165C22.9645 55.6955 22.6312 56.3191 22.1417 56.8086C21.6522 57.2981 21.0286 57.6314 20.3497 57.7665C19.6707 57.9015 18.967 57.8322 18.3274 57.5673C17.6879 57.3024 17.1413 56.8538 16.7567 56.2782C16.3721 55.7026 16.1668 55.0259 16.1668 54.3337C16.1668 53.4055 16.5356 52.5152 17.192 51.8588C17.8483 51.2025 18.7386 50.8337 19.6668 50.8337Z" fill="white"/>
<defs>
<filter id="filter0_d_764_45134" x="13.3333" y="0.5" width="130.833" height="39.167" filterUnits="userSpaceOnUse" color-interpolation-filters="sRGB">
<feFlood flood-opacity="0" result="BackgroundImageFix"/>
<feColorMatrix in="SourceAlpha" type="matrix" values="0 0 0 0 0 0 0 0 0 0 0 0 0 0 0 0 0 0 127 0" result="hardAlpha"/>
<feOffset dy="2.5"/>
<feGaussianBlur stdDeviation="2.5"/>
<feColorMatrix type="matrix" values="0 0 0 0 0 0 0 0 0 0 0 0 0 0 0 0 0 0 0.161 0"/>
<feBlend mode="normal" in2="BackgroundImageFix" result="effect1_dropShadow_764_45134"/>
<feBlend mode="normal" in="SourceGraphic" in2="effect1_dropShadow_764_45134" result="shape"/>
</filter>
<filter id="filter1_d_764_45134" x="0.833313" y="38" width="130.833" height="39.167" filterUnits="userSpaceOnUse" color-interpolation-filters="sRGB">
<feFlood flood-opacity="0" result="BackgroundImageFix"/>
<feColorMatrix in="SourceAlpha" type="matrix" values="0 0 0 0 0 0 0 0 0 0 0 0 0 0 0 0 0 0 127 0" result="hardAlpha"/>
<feOffset dy="2.5"/>
<feGaussianBlur stdDeviation="2.5"/>
<feColorMatrix type="matrix" values="0 0 0 0 0 0 0 0 0 0 0 0 0 0 0 0 0 0 0.161 0"/>
<feBlend mode="normal" in2="BackgroundImageFix" result="effect1_dropShadow_764_45134"/>
<feBlend mode="normal" in="SourceGraphic" in2="effect1_dropShadow_764_45134" result="shape"/>
</filter>
</defs>
</svg>
