<svg width="40" height="40" viewBox="0 0 40 40" fill="none" xmlns="http://www.w3.org/2000/svg">
<rect width="40" height="40" rx="20" fill="#FFFBFF"/>
<rect width="40" height="40" rx="20" fill="#52000B" fill-opacity="0.024"/>
<mask id="mask0_1390_21746" style="mask-type:alpha" maskUnits="userSpaceOnUse" x="8" y="8" width="24" height="24">
<rect x="8" y="8" width="24" height="24" fill="#D9D9D9"/>
</mask>
<g mask="url(#mask0_1390_21746)">
<path d="M12 27V25H14V18C14 16.6167 14.4167 15.3873 15.25 14.312C16.0833 13.2373 17.1667 12.5333 18.5 12.2V11.5C18.5 11.0833 18.646 10.7293 18.938 10.438C19.2293 10.146 19.5833 10 20 10C20.4167 10 20.7707 10.146 21.062 10.438C21.354 10.7293 21.5 11.0833 21.5 11.5V12.2C22.8333 12.5333 23.9167 13.2373 24.75 14.312C25.5833 15.3873 26 16.6167 26 18V25H28V27H12ZM20 30C19.45 30 18.9793 29.8043 18.588 29.413C18.196 29.021 18 28.55 18 28H22C22 28.55 21.8043 29.021 21.413 29.413C21.021 29.8043 20.55 30 20 30ZM16 25H24V18C24 16.9 23.6083 15.9583 22.825 15.175C22.0417 14.3917 21.1 14 20 14C18.9 14 17.9583 14.3917 17.175 15.175C16.3917 15.9583 16 16.9 16 18V25Z" fill="#AA0017"/>
</g>
</svg>
