<svg width="255" height="201" viewBox="0 0 255 201" fill="none" xmlns="http://www.w3.org/2000/svg">
<g clip-path="url(#clip0_70_145)">
<path d="M61.5049 108.937C59.4785 98.0917 62.6688 85.7531 71.5363 79.1884C71.0337 91.176 74.7876 102.955 82.1337 112.441C84.98 116.09 88.5257 119.851 88.4155 124.477C88.3471 127.355 86.7904 130.037 84.739 132.057C82.6875 134.077 80.1604 135.534 77.6635 136.968L77.2749 137.572C69.9556 129.316 63.5313 119.783 61.5049 108.937Z" fill="#F0F0F0"/>
<path d="M71.6978 79.3541C67.9723 87.692 66.9686 96.9917 68.8294 105.932C69.1958 107.864 69.8645 109.726 70.8107 111.45C71.7867 113.099 73.1866 114.457 74.8648 115.382C76.4123 116.276 78.0988 117.012 79.4019 118.267C80.0594 118.919 80.5717 119.703 80.905 120.567C81.2384 121.431 81.3853 122.355 81.3362 123.28C81.2738 125.588 80.386 127.735 79.4448 129.805C78.3998 132.103 77.278 134.474 77.3457 137.058C77.354 137.371 76.8677 137.365 76.8595 137.053C76.7416 132.557 79.9917 128.947 80.7158 124.633C81.0538 122.621 80.7872 120.494 79.3721 118.934C78.1346 117.569 76.3962 116.809 74.8215 115.918C73.1711 115.039 71.761 113.77 70.7142 112.22C69.6833 110.55 68.944 108.717 68.5281 106.799C67.5229 102.496 67.2005 98.0622 67.5727 93.6591C67.9696 88.6316 69.2236 83.709 71.2805 79.1043C71.4079 78.8193 71.8244 79.071 71.6978 79.3541L71.6978 79.3541Z" fill="white"/>
<path d="M68.0609 103.089C66.5184 103.197 64.9876 102.754 63.7419 101.838C62.4961 100.922 61.6164 99.5934 61.26 98.0888C61.1889 97.7841 61.659 97.6593 61.7302 97.9644C62.0595 99.3661 62.8791 100.604 64.0409 101.454C65.2027 102.305 66.6303 102.712 68.066 102.603C68.378 102.579 68.3711 103.066 68.0609 103.089Z" fill="white"/>
<path d="M74.0205 115.032C76.1144 112.664 77.2389 109.594 77.1698 106.434C77.1627 106.121 77.6489 106.127 77.656 106.439C77.7218 109.728 76.5451 112.92 74.3607 115.38C74.1523 115.614 73.8132 115.265 74.0205 115.032V115.032Z" fill="white"/>
<path d="M68.5393 88.9335C69.1448 89.0159 69.7614 88.9465 70.3335 88.7317C70.9056 88.5169 71.4154 88.1634 71.8172 87.7028C72.0225 87.4661 72.3614 87.815 72.1574 88.0503C71.7112 88.557 71.1477 88.9468 70.5161 89.1855C69.8845 89.4242 69.204 89.5047 68.5342 89.4198C68.4704 89.4171 68.41 89.3901 68.3653 89.3445C68.3206 89.2989 68.295 89.2379 68.2936 89.1741C68.2946 89.1097 68.3209 89.0483 68.3669 89.0033C68.4129 88.9582 68.4749 88.9332 68.5392 88.9335H68.5393Z" fill="white"/>
<path d="M107.799 88.1592C107.675 88.3107 107.551 88.4622 107.428 88.6176C105.772 90.663 104.285 92.8396 102.981 95.1259C102.877 95.301 102.775 95.4801 102.676 95.6579C99.5939 101.2 97.567 107.265 96.6989 113.547C96.3557 116.047 96.2032 118.569 96.2427 121.092C96.2975 124.576 96.6341 128.35 95.5661 131.555C95.4584 131.89 95.3301 132.219 95.1817 132.539L78.0426 137.999C77.9974 137.992 77.9533 137.989 77.9079 137.982L77.2336 138.231C77.2225 138.101 77.2137 137.966 77.2026 137.836C77.1958 137.761 77.1929 137.684 77.1861 137.609C77.1828 137.558 77.1797 137.508 77.1738 137.462C77.1726 137.445 77.1717 137.428 77.1717 137.415C77.1659 137.37 77.1652 137.327 77.1606 137.285C77.1096 136.531 77.0625 135.775 77.0233 135.016C77.0221 135.012 77.0221 135.012 77.0247 135.007C76.7305 129.23 76.916 123.377 77.9839 117.739C78.0161 117.57 78.0469 117.396 78.0869 117.224C78.5824 114.685 79.2845 112.191 80.1863 109.767C80.6844 108.441 81.2492 107.141 81.8788 105.872C83.5116 102.597 85.6495 99.5988 88.214 96.9879C93.3271 91.7837 100.048 88.2728 107.249 88.1622C107.433 88.1595 107.614 88.1579 107.799 88.1592Z" fill="#F0F0F0"/>
<path d="M107.83 88.389C99.8353 92.8033 93.4349 99.6243 89.5377 107.883C88.6671 109.646 88.08 111.536 87.7977 113.482C87.5841 115.386 87.8843 117.313 88.6672 119.062C89.3644 120.708 90.2682 122.31 90.5532 124.097C90.6856 125.013 90.6226 125.948 90.3686 126.838C90.1145 127.729 89.6751 128.556 89.0791 129.265C87.64 131.069 85.6382 132.25 83.6405 133.336C81.4224 134.541 79.0994 135.759 77.5979 137.863C77.4159 138.118 77.031 137.82 77.2127 137.566C79.8251 133.905 84.5938 132.98 87.7691 129.971C89.2507 128.568 90.3184 126.709 90.1278 124.611C89.9612 122.777 89.0307 121.124 88.3103 119.464C87.5216 117.768 87.1599 115.906 87.2569 114.039C87.4391 112.085 87.9526 110.176 88.7752 108.394C90.5632 104.353 92.9755 100.619 95.9236 97.3271C99.2674 93.5519 103.232 90.3765 107.647 87.9383C107.92 87.7875 108.101 88.2392 107.83 88.389Z" fill="white"/>
<path d="M90.636 105.15C89.3391 104.308 88.3837 103.033 87.9405 101.551C87.4972 100.07 87.595 98.4792 88.2162 97.0632C88.3429 96.7772 88.7934 96.9606 88.6666 97.247C88.0856 98.5645 87.9947 100.046 88.4103 101.425C88.8258 102.803 89.7205 103.988 90.9328 104.765C91.1961 104.934 90.8977 105.318 90.636 105.15H90.636Z" fill="white"/>
<path d="M88.2037 118.274C91.3011 117.644 94.0474 115.87 95.8948 113.305C96.0776 113.051 96.4626 113.348 96.2799 113.602C94.3525 116.268 91.4909 118.108 88.2662 118.757C87.9588 118.818 87.8979 118.336 88.2037 118.274V118.274Z" fill="white"/>
<path d="M99.5405 94.136C99.9745 94.5663 100.508 94.8821 101.095 95.0551C101.681 95.2281 102.301 95.2527 102.899 95.1269C103.205 95.0614 103.266 95.5441 102.961 95.6091C102.3 95.7451 101.615 95.717 100.967 95.5273C100.319 95.3377 99.7274 94.9922 99.2437 94.5211C99.1944 94.4805 99.1624 94.4227 99.1542 94.3594C99.146 94.296 99.1622 94.2319 99.1995 94.1801C99.2391 94.1293 99.2971 94.0962 99.3609 94.0879C99.4248 94.0796 99.4893 94.0969 99.5405 94.1359V94.136Z" fill="white"/>
<path d="M134.721 28.8522C134.778 29.1046 134.816 29.3612 134.833 29.6195L154.928 41.2122L159.812 38.4004L165.019 45.2172L156.856 51.0353C156.197 51.5054 155.403 51.7488 154.593 51.7291C153.783 51.7093 153.002 51.4275 152.366 50.9259L131.645 34.5786C130.71 34.9248 129.691 34.978 128.725 34.7313C127.759 34.4845 126.891 33.9495 126.236 33.1973C125.581 32.4451 125.171 31.5115 125.06 30.5205C124.949 29.5296 125.142 28.5283 125.614 27.6498C126.086 26.7714 126.814 26.0574 127.702 25.6029C128.589 25.1483 129.594 24.9748 130.583 25.1053C131.572 25.2359 132.497 25.6643 133.236 26.3336C133.975 27.0029 134.493 27.8814 134.721 28.8522V28.8522Z" fill="#FFB6B6"/>
<path d="M155.207 39.9323C155.271 39.6366 155.397 39.3581 155.579 39.1159C155.76 38.8736 155.991 38.6733 156.257 38.5286L165.534 33.4737C166.77 32.5413 168.325 32.1368 169.858 32.3491C171.391 32.5613 172.778 33.373 173.713 34.606C174.649 35.8391 175.057 37.3929 174.849 38.9267C174.641 40.4605 173.833 41.849 172.602 42.7879L165.166 50.3417C164.954 50.5573 164.698 50.7246 164.415 50.8322C164.133 50.9399 163.83 50.9853 163.528 50.9654C163.226 50.9456 162.932 50.8609 162.666 50.7172C162.4 50.5734 162.168 50.374 161.986 50.1325L155.584 41.6444C155.401 41.4029 155.273 41.125 155.208 40.8295C155.143 40.534 155.143 40.228 155.207 39.9323Z" fill="#3F3D56"/>
<path d="M171.782 10.5449C173.116 6.29079 176.152 2.38907 180.35 0.950942C184.548 -0.487178 190.695 1.70355 193.852 4.84903C199.625 10.6027 201.034 30.3688 197.067 36.6151C196.278 36.5733 193.556 36.5425 192.758 36.5125L191.628 32.7477V36.4754C185.395 36.2828 178.907 36.4034 172.415 36.5281C171.833 32.1057 170.447 14.799 171.782 10.5449Z" fill="#2F2E41"/>
<path d="M169.995 189.11H164.311L161.607 167.184L169.997 167.184L169.995 189.11Z" fill="#FFB6B6"/>
<path d="M219.759 185.576L214.258 187.009L206.11 166.474L214.229 164.358L219.759 185.576Z" fill="#FFB6B6"/>
<path d="M188.432 54.4406L189.72 57.7895L189.462 61.1384L164.253 69.8697L165.504 55.2134L168.338 51.8641L188.432 54.4406Z" fill="#FFB6B6"/>
<path d="M180.461 24.3032C185.434 24.3032 189.465 20.2722 189.465 15.2997C189.465 10.3271 185.434 6.29608 180.461 6.29608C175.489 6.29608 171.458 10.3271 171.458 15.2997C171.458 20.2722 175.489 24.3032 180.461 24.3032Z" fill="#FFB7B7"/>
<path d="M174.275 3.57541C176.005 2.52075 177.986 1.95024 180.012 1.92353C182.038 1.89682 184.034 2.41489 185.791 3.42358C187.548 4.43227 189.002 5.89453 190.001 7.65745C191 9.42037 191.506 11.4192 191.468 13.445C186.56 14.6994 181.33 15.224 175.788 13.7471L174.521 10.6464L173.774 13.7494C172.078 14.9421 170.442 14.94 168.864 13.7429C168.797 11.7229 169.262 9.72067 170.211 7.93642C171.161 6.15217 172.562 4.6484 174.275 3.57541Z" fill="#2F2E41"/>
<path d="M172.538 199.904H168.505L167.785 196.096L165.941 199.904H155.242C154.729 199.904 154.23 199.741 153.817 199.437C153.404 199.133 153.099 198.705 152.946 198.215C152.793 197.726 152.801 197.2 152.969 196.715C153.136 196.231 153.454 195.812 153.876 195.521L162.419 189.62V185.77L171.405 186.306L172.538 199.904Z" fill="#2F2E41"/>
<path d="M225.44 195.249L221.537 196.267L219.88 192.763L219.056 196.913L208.703 199.612C208.207 199.741 207.682 199.709 207.206 199.519C206.73 199.329 206.327 198.992 206.055 198.556C205.784 198.121 205.659 197.611 205.699 197.099C205.738 196.588 205.94 196.103 206.275 195.714L213.054 187.85L212.083 184.124L220.914 182.377L225.44 195.249Z" fill="#2F2E41"/>
<path d="M219.061 171.787L202.398 137.539L197.167 95.8563C200.774 89.1584 194.076 75.5295 194.076 75.5295V69.8072L168.13 74.702V74.7021C162.823 89.1762 160.25 104.51 160.541 119.923L161.586 175.332H161.258C160.714 175.332 160.192 175.548 159.807 175.933C159.422 176.318 159.206 176.84 159.206 177.384C159.206 177.928 159.422 178.45 159.807 178.835C160.192 179.22 160.714 179.436 161.258 179.436H171.518C172.062 179.436 172.584 179.22 172.969 178.835C173.354 178.45 173.57 177.928 173.57 177.384C173.57 176.84 173.354 176.318 172.969 175.933C172.584 175.548 172.062 175.332 171.518 175.332H171.254L178.619 104.842L187.183 139.627L207.88 171.655C207.352 171.696 206.861 171.94 206.509 172.336C206.157 172.732 205.973 173.249 205.994 173.778C206.015 174.307 206.24 174.807 206.623 175.173C207.005 175.54 207.515 175.744 208.044 175.742H218.304C218.781 175.743 219.244 175.577 219.612 175.273C219.98 174.969 220.23 174.546 220.32 174.078C220.409 173.609 220.333 173.124 220.103 172.705C219.873 172.287 219.505 171.962 219.061 171.787H219.061Z" fill="#2F2E41"/>
<path d="M196.422 79.0377H196.422C196.336 78.7028 196.147 78.4036 195.882 78.1828C195.616 77.962 195.287 77.831 194.942 77.8086C194.6 73.8986 192.34 48.8223 192.255 48.0866L192.251 48.0555L191.597 34.0781C191.573 33.5705 191.363 33.0894 191.007 32.7267C190.651 32.3641 190.174 32.1453 189.667 32.1121L186.211 31.8862C186.164 31.8846 186.119 31.8647 186.086 31.8306C186.053 31.7965 186.034 31.7509 186.034 31.7035C186.034 31.3218 185.959 30.9439 185.813 30.5913C185.667 30.2387 185.453 29.9183 185.183 29.6485C184.913 29.3786 184.593 29.1645 184.24 29.0185C183.888 28.8724 183.51 28.7972 183.128 28.7972H172.896C172.233 28.7975 171.594 29.0396 171.097 29.4782C170.6 29.9168 170.28 30.5216 170.198 31.1791C170.193 31.2244 170.172 31.2663 170.137 31.2964C170.103 31.3266 170.059 31.3428 170.014 31.3417L170.012 31.3417C168.85 31.3177 167.717 31.7114 166.82 32.4511C165.923 33.1909 165.32 34.2278 165.122 35.3736C163.724 43.5124 160.92 61.9842 162.306 72.2534C162.789 75.8283 162.569 81.205 162.387 84.1961C162.369 84.4851 162.408 84.7749 162.502 85.0489C162.596 85.3228 162.743 85.5754 162.935 85.7924C162.527 85.91 162.181 86.1815 161.969 86.5496C161.757 86.9177 161.696 87.3536 161.8 87.7655H161.8C161.906 88.1876 162.176 88.5503 162.55 88.7735C162.924 88.9968 163.371 89.0624 163.793 88.956L195.231 81.0308C195.653 80.9243 196.016 80.6546 196.239 80.2808C196.463 79.907 196.528 79.4599 196.422 79.0377Z" fill="#3F3D56"/>
<path d="M144.462 137.801C144.456 136.883 144.126 135.997 143.529 135.299C142.932 134.602 142.107 134.139 141.201 133.991L85.4627 124.838C84.9282 124.75 84.3811 124.774 83.8566 124.91L70.7938 128.287L63.2989 130.228L49.4672 133.803C48.6322 134.02 47.8928 134.508 47.3649 135.19C46.837 135.873 46.5505 136.711 46.5503 137.573V195.98C46.5544 196.87 46.8621 197.732 47.4225 198.424C47.9829 199.116 48.7625 199.597 49.6327 199.786L106.407 199.143C106.673 199.2 106.945 199.228 107.218 199.227C107.615 199.228 108.01 199.168 108.389 199.049L142.12 199.888C142.916 199.64 143.61 199.141 144.101 198.467C144.591 197.792 144.851 196.978 144.842 196.144L144.462 137.801Z" fill="white"/>
<path d="M144.462 137.8C144.456 136.883 144.126 135.997 143.529 135.299C142.932 134.602 142.107 134.139 141.201 133.991L85.4627 124.838C84.9282 124.75 84.3811 124.774 83.8566 124.91L70.7938 128.287L63.2989 130.228L49.4672 133.803C48.6322 134.02 47.8928 134.508 47.3649 135.19C46.837 135.873 46.5505 136.711 46.5503 137.573V195.98C46.5544 196.87 46.8621 197.732 47.4225 198.424C47.9829 199.116 48.7625 199.597 49.6327 199.786L106.407 199.143C106.673 199.2 106.945 199.228 107.218 199.227C107.615 199.228 108.01 199.168 108.389 199.049L142.12 199.888C142.916 199.64 143.61 199.141 144.101 198.467C144.591 197.792 144.851 196.978 144.842 196.144L144.462 137.8ZM141.828 198.96L108.097 199.762C107.616 199.912 107.104 199.937 106.611 199.834L49.8338 198.835C49.1815 198.693 48.5971 198.332 48.1771 197.813C47.7571 197.294 47.5266 196.647 47.5237 195.98V137.573C47.5241 136.975 47.7078 136.392 48.0501 135.902C48.3924 135.412 48.8768 135.038 49.438 134.832C49.5271 134.798 49.6181 134.77 49.7105 134.747L64.3436 130.964L72.997 128.725L84.0999 125.854C84.338 125.79 84.5835 125.759 84.8299 125.76C84.9887 125.76 85.1471 125.773 85.3037 125.799L141.042 134.952C141.491 135.025 141.916 135.202 142.285 135.469C142.653 135.735 142.954 136.084 143.164 136.486C143.375 136.895 143.486 137.347 143.489 137.807L143.869 196.15C143.876 196.776 143.681 197.387 143.313 197.893C142.946 198.399 142.425 198.773 141.828 198.96Z" fill="#CCCCCC"/>
<path d="M143.164 136.486C143.126 136.511 143.085 136.53 143.041 136.542L126.646 140.974L121.542 142.353L107.026 146.275C106.985 146.286 106.942 146.291 106.9 146.292C106.87 146.291 106.841 146.289 106.812 146.285L48.2796 135.614L48.0849 135.578C47.9581 135.554 47.8459 135.481 47.7728 135.375C47.6997 135.268 47.6717 135.138 47.6948 135.011C47.718 134.884 47.7904 134.771 47.8964 134.697C48.0023 134.624 48.1331 134.595 48.2601 134.618L49.4379 134.832L106.88 145.305L119.391 141.924L126.39 140.033L142.532 135.669L142.788 135.601C142.899 135.571 143.016 135.582 143.12 135.631C143.224 135.679 143.307 135.763 143.356 135.867C143.368 135.892 143.378 135.918 143.385 135.945C143.412 136.047 143.405 136.155 143.365 136.252C143.325 136.35 143.255 136.432 143.164 136.486Z" fill="#CCCCCC"/>
<path d="M107.386 199.341C107.12 199.341 106.902 199.126 106.9 200.5L106.413 147.451C106.41 145.541 106.627 145.321 106.895 145.318H106.9C107.166 145.318 107.384 145.533 107.386 147.442L107.873 200.491C107.876 199.118 107.659 199.338 107.391 199.341H107.386Z" fill="#CCCCCC"/>
<path d="M126.784 199.956L121.542 200.012L119.391 141.924L64.5026 131.003C64.4488 130.994 64.3957 130.981 64.3436 130.964C63.922 130.844 63.5536 130.584 63.2988 130.228L70.7938 128.287L72.9969 128.725L125.079 139.085C125.353 139.139 125.612 139.252 125.838 139.416C126.064 139.579 126.253 139.79 126.39 140.033C126.552 140.315 126.781 199.619 126.784 199.956Z" fill="#CCCCCC"/>
<path d="M168.77 31.4812C168.765 30.7895 168.516 30.1216 168.066 29.5961C167.616 29.0706 166.995 28.7214 166.312 28.6104L124.304 21.7123C123.902 21.6456 123.489 21.6639 123.094 21.7661L113.249 24.3116L107.601 25.7739L97.1762 28.4686C96.5469 28.632 95.9897 28.9997 95.5919 29.5139C95.194 30.0282 94.9781 30.6599 94.9779 31.31V65.7398C94.981 66.4108 95.2129 67.0608 95.6353 67.5823C96.0576 68.1037 96.6452 68.4656 97.3009 68.6081L140.089 77.712C140.29 77.7552 140.495 77.7765 140.7 77.7755C140.999 77.7761 141.297 77.7308 141.583 77.6411L167.004 69.6132C167.604 69.4259 168.128 69.0503 168.497 68.542C168.867 68.0336 169.063 67.4197 169.056 66.7913L168.77 31.4812Z" fill="white"/>
<path d="M123.829 24.2406C123.798 24.2406 123.768 24.2445 123.738 24.2523L97.82 30.9549C97.7415 30.9753 97.6719 31.0211 97.6222 31.0853C97.5725 31.1495 97.5455 31.2284 97.5455 31.3095V65.7388C97.5458 65.8226 97.5748 65.9038 97.6275 65.969C97.6802 66.0342 97.7536 66.0794 97.8356 66.0972L140.623 75.2009C140.685 75.214 140.75 75.2108 140.81 75.1918L166.232 67.1642C166.307 67.1408 166.372 67.0939 166.418 67.0304C166.464 66.9669 166.489 66.8902 166.488 66.8117L166.203 31.5018C166.202 31.4154 166.171 31.332 166.115 31.2664C166.058 31.2008 165.981 31.1572 165.896 31.1433L123.888 24.2454C123.868 24.2423 123.849 24.2407 123.829 24.2406Z" fill="#AA0017"/>
<path d="M168.77 31.4812C168.765 30.7895 168.516 30.1216 168.066 29.5961C167.616 29.0706 166.995 28.7214 166.312 28.6104L124.304 21.7123C123.902 21.6456 123.489 21.6639 123.094 21.7661L113.249 24.3116L107.601 25.7739L97.1762 28.4686C96.5469 28.632 95.9897 28.9997 95.5919 29.5139C95.194 30.0282 94.9781 30.6599 94.9779 31.31V65.7398C94.981 66.4108 95.2129 67.0608 95.6353 67.5823C96.0576 68.1037 96.6452 68.4656 97.3009 68.6081L140.089 77.712C140.29 77.7552 140.495 77.7765 140.7 77.7755C140.999 77.7761 141.297 77.7308 141.583 77.6411L167.004 69.6132C167.604 69.4259 168.128 69.0503 168.497 68.542C168.867 68.0336 169.063 67.4197 169.056 66.7913L168.77 31.4812ZM166.784 68.9138L141.363 76.9417C141 77.0547 140.615 77.0732 140.243 76.9955L97.4525 67.8917C96.9609 67.7845 96.5205 67.5129 96.2039 67.1217C95.8874 66.7304 95.7137 66.243 95.7115 65.7398V31.3101C95.7118 30.8594 95.8503 30.4198 96.1083 30.0503C96.3662 29.6808 96.7313 29.3993 97.1542 29.2438C97.2214 29.2186 97.29 29.1973 97.3596 29.1802L108.388 26.329L114.91 24.6417L123.277 22.4777C123.457 22.4298 123.642 22.4059 123.828 22.4067C123.947 22.4067 124.067 22.4165 124.185 22.4361L166.192 29.3343C166.53 29.3897 166.851 29.5231 167.128 29.7239C167.406 29.9246 167.633 30.1872 167.791 30.4909C167.95 30.7988 168.034 31.1398 168.036 31.4861L168.322 66.7962C168.327 67.2676 168.181 67.7282 167.904 68.1096C167.627 68.491 167.234 68.773 166.784 68.9138V68.9138Z" fill="#3F3D56"/>
<path d="M167.791 30.4909C167.763 30.5096 167.732 30.5237 167.699 30.5325L155.342 33.8727L151.496 34.912L140.556 37.8683C140.525 37.876 140.493 37.8801 140.46 37.8806C140.438 37.8801 140.416 37.8785 140.394 37.8757L96.2812 29.8331L96.1345 29.8062C96.0389 29.7883 95.9542 29.7333 95.8991 29.6531C95.8439 29.573 95.8227 29.4743 95.8402 29.3786C95.8577 29.2829 95.9123 29.198 95.9922 29.1424C96.0721 29.0869 96.1708 29.0653 96.2666 29.0824L97.1542 29.2438L140.446 37.1372L149.875 34.5892L155.149 33.1636L167.315 29.8747L167.508 29.8233C167.591 29.8013 167.68 29.8093 167.758 29.8459C167.836 29.8826 167.899 29.9455 167.936 30.0238C167.945 30.0425 167.953 30.0622 167.958 30.0825C167.978 30.1594 167.973 30.2408 167.943 30.3144C167.913 30.388 167.86 30.4499 167.791 30.4909Z" fill="#3F3D56"/>
<path d="M140.827 77.8611C140.731 77.8611 140.638 77.8229 140.569 77.7549C140.5 77.6868 140.461 77.5944 140.46 77.4977L140.094 37.5171C140.093 37.4198 140.131 37.3262 140.199 37.2568C140.267 37.1873 140.36 37.1478 140.457 37.1469H140.46C140.557 37.1469 140.65 37.1851 140.719 37.2532C140.787 37.3212 140.826 37.4137 140.827 37.5104L141.194 77.491C141.195 77.5882 141.157 77.6819 141.089 77.7513C141.021 77.8207 140.928 77.8602 140.831 77.8611H140.827Z" fill="#3F3D56"/>
<path d="M155.342 72.9974L151.496 74.0367L149.875 34.5891L108.508 26.3583C108.467 26.3511 108.427 26.3413 108.388 26.3289C108.07 26.2385 107.792 26.0427 107.6 25.7739L113.249 24.3116L114.909 24.6417L154.161 32.4495C154.368 32.4903 154.563 32.5752 154.733 32.6985C154.904 32.8217 155.046 32.9804 155.149 33.1636C155.272 33.3763 155.34 72.7431 155.342 72.9974Z" fill="#121212"/>
<path d="M153.619 50.5061C153.816 50.6743 153.999 50.8579 154.167 51.0549L177.21 48.3638L179.451 43.1925L187.697 45.5546L184.619 55.0948C184.371 55.8655 183.879 56.5348 183.218 57.0021C182.556 57.4695 181.761 57.7097 180.952 57.6867L154.569 56.9367C154.025 57.7725 153.24 58.423 152.317 58.8017C151.395 59.1803 150.379 59.2691 149.405 59.0563C148.43 58.8435 147.544 58.3391 146.863 57.6102C146.183 56.8814 145.74 55.9626 145.595 54.9762C145.449 53.9897 145.607 52.9823 146.048 52.0879C146.489 51.1934 147.192 50.4545 148.063 49.9692C148.934 49.484 149.932 49.2754 150.925 49.3713C151.917 49.4672 152.857 49.863 153.619 50.5061Z" fill="#FFB6B6"/>
<path d="M176.669 47.1703C176.544 46.895 176.48 46.5958 176.48 46.2933C176.481 45.9908 176.547 45.6921 176.674 45.4174L181.101 35.8245C181.536 34.3391 182.543 33.0868 183.899 32.3421C185.256 31.5975 186.853 31.4213 188.34 31.8523C189.826 32.2832 191.081 33.286 191.83 34.6409C192.578 35.9958 192.758 37.5921 192.331 39.0799L190.873 49.5786C190.832 49.8782 190.726 50.1654 190.563 50.4204C190.401 50.6755 190.185 50.8926 189.931 51.0568C189.677 51.221 189.391 51.3285 189.091 51.3721C188.792 51.4156 188.487 51.3941 188.196 51.309L177.994 48.3191C177.703 48.2341 177.435 48.0875 177.206 47.8893C176.978 47.691 176.795 47.4458 176.669 47.1703Z" fill="#3F3D56"/>
<path d="M253.965 200.384H1.03534C0.905982 200.383 0.782049 200.331 0.690713 200.24C0.599376 200.148 0.548096 200.024 0.548096 199.895C0.548096 199.766 0.599376 199.641 0.690713 199.55C0.782049 199.458 0.905982 199.407 1.03534 199.406H253.965C254.094 199.406 254.219 199.458 254.31 199.549C254.402 199.641 254.453 199.765 254.453 199.895C254.453 200.024 254.402 200.149 254.31 200.24C254.219 200.332 254.094 200.384 253.965 200.384Z" fill="#CACACA"/>
<path d="M49.8413 148.46C57.9582 148.46 64.5382 141.88 64.5382 133.763C64.5382 125.646 57.9582 119.066 49.8413 119.066C41.7243 119.066 35.1443 125.646 35.1443 133.763C35.1443 141.88 41.7243 148.46 49.8413 148.46Z" fill="#03824E"/>
<path d="M47.8364 141.412C47.5826 141.412 47.3323 141.353 47.1053 141.24C46.8783 141.126 46.6809 140.961 46.5286 140.758L42.5191 135.412C42.2589 135.065 42.1473 134.629 42.2086 134.2C42.2699 133.771 42.4992 133.384 42.8461 133.123C43.193 132.863 43.629 132.752 44.0582 132.813C44.4874 132.874 44.8747 133.104 45.1348 133.451L47.758 136.948L54.4953 126.842C54.6141 126.663 54.7671 126.508 54.9456 126.388C55.124 126.268 55.3244 126.184 55.5353 126.142C55.7462 126.099 55.9634 126.099 56.1745 126.141C56.3855 126.182 56.5863 126.265 56.7653 126.384C56.9443 126.504 57.098 126.657 57.2175 126.836C57.3371 127.015 57.4202 127.215 57.4621 127.426C57.5039 127.637 57.5037 127.855 57.4615 128.066C57.4192 128.277 57.3358 128.477 57.2159 128.656L49.1968 140.684C49.0517 140.902 48.8566 141.082 48.6278 141.208C48.399 141.335 48.1432 141.405 47.8819 141.412C47.8667 141.412 47.8515 141.412 47.8364 141.412Z" fill="white"/>
<path d="M112.421 55.6995C112.375 55.6995 112.329 55.6943 112.285 55.6843L99.5622 52.8115C99.4031 52.7753 99.2648 52.6776 99.1778 52.5396C99.0907 52.4016 99.062 52.2347 99.0979 52.0756C99.1337 51.9164 99.2314 51.7781 99.3692 51.6908C99.5071 51.6036 99.6739 51.5746 99.8331 51.6103L112.556 54.4831C112.703 54.5165 112.834 54.6031 112.921 54.7265C113.009 54.8498 113.049 55.0012 113.032 55.1517C113.015 55.3022 112.944 55.4413 112.831 55.5423C112.718 55.6434 112.572 55.6993 112.421 55.6995Z" fill="white"/>
<path d="M63.4567 171.325C63.4119 171.334 63.3663 171.339 63.3206 171.338L50.2796 171.118C50.1166 171.115 49.9614 171.048 49.8481 170.93C49.7349 170.813 49.6728 170.655 49.6755 170.492C49.6782 170.329 49.7455 170.174 49.8626 170.061C49.9797 169.947 50.137 169.885 50.3 169.887L63.341 170.107C63.4924 170.109 63.6376 170.167 63.7487 170.27C63.8599 170.373 63.9292 170.513 63.9435 170.664C63.9579 170.815 63.9161 170.966 63.8263 171.087C63.7365 171.209 63.6049 171.294 63.4567 171.325Z" fill="#E6E6E6"/>
<path d="M67.9712 178.302C67.9265 178.311 67.8808 178.315 67.8351 178.315L54.7941 178.095C54.6311 178.092 54.4759 178.024 54.3627 177.907C54.2494 177.79 54.1873 177.632 54.19 177.469C54.1927 177.306 54.26 177.151 54.3771 177.037C54.4942 176.924 54.6515 176.862 54.8146 176.864L67.8556 177.083C68.007 177.086 68.1521 177.144 68.2632 177.247C68.3744 177.35 68.4438 177.49 68.4581 177.641C68.4724 177.792 68.4306 177.942 68.3408 178.064C68.251 178.186 68.1194 178.271 67.9712 178.302Z" fill="#E6E6E6"/>
</g>
<defs>
<clipPath id="clip0_70_145">
<rect width="253.907" height="200" fill="white" transform="translate(0.546631 0.5)"/>
</clipPath>
</defs>
</svg>
