<svg width="40" height="40" viewBox="0 0 40 40" fill="none" xmlns="http://www.w3.org/2000/svg">
<rect width="40" height="40" rx="20" fill="#AA0017" fill-opacity="0.04"/>
<mask id="mask0_1503_19158" style="mask-type:alpha" maskUnits="userSpaceOnUse" x="10" y="10" width="20" height="20">
<rect x="10" y="10" width="20" height="20" fill="#D9D9D9"/>
</mask>
<g mask="url(#mask0_1503_19158)">
<path d="M12.4993 26.667V17.2503C12.2632 17.0975 12.0655 16.9031 11.906 16.667C11.746 16.4309 11.666 16.1531 11.666 15.8337V13.3337C11.666 12.8753 11.8293 12.4828 12.156 12.1562C12.4821 11.83 12.8743 11.667 13.3327 11.667H26.666C27.1243 11.667 27.5168 11.83 27.8435 12.1562C28.1696 12.4828 28.3327 12.8753 28.3327 13.3337V15.8337C28.3327 16.1531 28.2527 16.4309 28.0927 16.667C27.9332 16.9031 27.7355 17.0975 27.4993 17.2503V26.667C27.4993 27.1253 27.3363 27.5178 27.0102 27.8445C26.6835 28.1706 26.291 28.3337 25.8327 28.3337H14.166C13.7077 28.3337 13.3152 28.1706 12.9885 27.8445C12.6624 27.5178 12.4993 27.1253 12.4993 26.667ZM14.166 17.5003V26.667H25.8327V17.5003H14.166ZM26.666 15.8337V13.3337H13.3327V15.8337H26.666ZM17.4993 21.667H22.4993V20.0003H17.4993V21.667Z" fill="#AA0017"/>
</g>
</svg>
