<svg width="40" height="40" viewBox="0 0 40 40" fill="none" xmlns="http://www.w3.org/2000/svg">
<rect width="40" height="40" rx="20" fill="#FFFBFF"/>
<rect width="40" height="40" rx="20" fill="#52000B" fill-opacity="0.024"/>
<mask id="mask0_1390_8198" style="mask-type:alpha" maskUnits="userSpaceOnUse" x="8" y="8" width="24" height="24">
<rect x="8" y="8" width="24" height="24" fill="#D9D9D9"/>
</mask>
<g mask="url(#mask0_1390_8198)">
<path d="M13.85 25.1C14.7 24.45 15.65 23.9373 16.7 23.562C17.75 23.1873 18.85 23 20 23C21.15 23 22.25 23.1873 23.3 23.562C24.35 23.9373 25.3 24.45 26.15 25.1C26.7333 24.4167 27.1877 23.6417 27.513 22.775C27.8377 21.9083 28 20.9833 28 20C28 17.7833 27.221 15.8957 25.663 14.337C24.1043 12.779 22.2167 12 20 12C17.7833 12 15.896 12.779 14.338 14.337C12.7793 15.8957 12 17.7833 12 20C12 20.9833 12.1627 21.9083 12.488 22.775C12.8127 23.6417 13.2667 24.4167 13.85 25.1ZM20 21C19.0167 21 18.1873 20.6627 17.512 19.988C16.8373 19.3127 16.5 18.4833 16.5 17.5C16.5 16.5167 16.8373 15.6873 17.512 15.012C18.1873 14.3373 19.0167 14 20 14C20.9833 14 21.8127 14.3373 22.488 15.012C23.1627 15.6873 23.5 16.5167 23.5 17.5C23.5 18.4833 23.1627 19.3127 22.488 19.988C21.8127 20.6627 20.9833 21 20 21ZM20 30C18.6167 30 17.3167 29.7373 16.1 29.212C14.8833 28.6873 13.825 27.975 12.925 27.075C12.025 26.175 11.3127 25.1167 10.788 23.9C10.2627 22.6833 10 21.3833 10 20C10 18.6167 10.2627 17.3167 10.788 16.1C11.3127 14.8833 12.025 13.825 12.925 12.925C13.825 12.025 14.8833 11.3123 16.1 10.787C17.3167 10.2623 18.6167 10 20 10C21.3833 10 22.6833 10.2623 23.9 10.787C25.1167 11.3123 26.175 12.025 27.075 12.925C27.975 13.825 28.6873 14.8833 29.212 16.1C29.7373 17.3167 30 18.6167 30 20C30 21.3833 29.7373 22.6833 29.212 23.9C28.6873 25.1167 27.975 26.175 27.075 27.075C26.175 27.975 25.1167 28.6873 23.9 29.212C22.6833 29.7373 21.3833 30 20 30ZM20 28C20.8833 28 21.7167 27.871 22.5 27.613C23.2833 27.3543 24 26.9833 24.65 26.5C24 26.0167 23.2833 25.6457 22.5 25.387C21.7167 25.129 20.8833 25 20 25C19.1167 25 18.2833 25.129 17.5 25.387C16.7167 25.6457 16 26.0167 15.35 26.5C16 26.9833 16.7167 27.3543 17.5 27.613C18.2833 27.871 19.1167 28 20 28ZM20 19C20.4333 19 20.7917 18.8583 21.075 18.575C21.3583 18.2917 21.5 17.9333 21.5 17.5C21.5 17.0667 21.3583 16.7083 21.075 16.425C20.7917 16.1417 20.4333 16 20 16C19.5667 16 19.2083 16.1417 18.925 16.425C18.6417 16.7083 18.5 17.0667 18.5 17.5C18.5 17.9333 18.6417 18.2917 18.925 18.575C19.2083 18.8583 19.5667 19 20 19Z" fill="#AA0017"/>
</g>
</svg>
