<svg width="141" height="141" viewBox="0 0 141 141" fill="none" xmlns="http://www.w3.org/2000/svg">
<rect x="0.5" y="0.5" width="140" height="140" rx="70" fill="#1E1E1E" fill-opacity="0.06"/>
<path d="M90.75 56.9996H86.25V52.4996C86.2479 50.6724 85.6898 48.8891 84.6497 47.3868C83.6096 45.8845 82.1368 44.7343 80.4272 44.0892C78.7177 43.4442 76.8522 43.3348 75.079 43.7755C73.3057 44.2163 71.7086 45.1864 70.5 46.5568C69.3482 45.2513 67.8424 44.3079 66.1652 43.841C64.488 43.374 62.7113 43.4035 61.0506 43.926C59.3898 44.4484 57.9162 45.4413 56.8084 46.7844C55.7006 48.1274 55.0061 49.763 54.8091 51.4928C53.4421 50.6897 51.8873 50.2619 50.302 50.2527C48.7167 50.2436 47.157 50.6534 45.7809 51.4406C44.4048 52.2278 43.2611 53.3646 42.4654 54.7359C41.6698 56.1072 41.2505 57.6643 41.25 59.2496V70.4996C41.25 78.2572 44.3317 85.6971 49.8171 91.1825C55.3026 96.668 62.7424 99.7496 70.5 99.7496C78.2576 99.7496 85.6974 96.668 91.1829 91.1825C96.6683 85.6971 99.75 78.2572 99.75 70.4996V65.9996C99.75 63.6127 98.8018 61.3235 97.114 59.6357C95.4261 57.9479 93.1369 56.9996 90.75 56.9996ZM77.25 47.9996C78.4435 47.9996 79.5881 48.4738 80.432 49.3177C81.2759 50.1616 81.75 51.3062 81.75 52.4996V56.9996H72.75V52.4996C72.75 51.3062 73.2241 50.1616 74.068 49.3177C74.9119 48.4738 76.0565 47.9996 77.25 47.9996ZM59.25 52.4996C59.25 51.3062 59.7241 50.1616 60.568 49.3177C61.4119 48.4738 62.5565 47.9996 63.75 47.9996C64.9435 47.9996 66.0881 48.4738 66.932 49.3177C67.7759 50.1616 68.25 51.3062 68.25 52.4996V63.7496C68.25 64.9431 67.7759 66.0877 66.932 66.9316C66.0881 67.7755 64.9435 68.2496 63.75 68.2496C62.5565 68.2496 61.4119 67.7755 60.568 66.9316C59.7241 66.0877 59.25 64.9431 59.25 63.7496V52.4996ZM45.75 59.2496C45.75 58.0562 46.2241 56.9116 47.068 56.0677C47.9119 55.2238 49.0565 54.7496 50.25 54.7496C51.4435 54.7496 52.5881 55.2238 53.432 56.0677C54.2759 56.9116 54.75 58.0562 54.75 59.2496V63.7496C54.75 64.9431 54.2759 66.0877 53.432 66.9316C52.5881 67.7755 51.4435 68.2496 50.25 68.2496C49.0565 68.2496 47.9119 67.7755 47.068 66.9316C46.2241 66.0877 45.75 64.9431 45.75 63.7496V59.2496ZM95.25 70.4996C95.2499 76.9723 92.7141 83.1874 88.1862 87.8128C83.6584 92.4381 77.4987 95.1057 71.0275 95.2436C64.5562 95.3816 58.2885 92.9789 53.5676 88.5507C48.8467 84.1225 46.0484 78.0211 45.7725 71.5543C47.571 72.5887 49.6721 72.9684 51.7188 72.629C53.7656 72.2896 55.6317 71.252 57 69.6925C58.5507 71.4594 60.7324 72.5478 63.0767 72.7239C65.4209 72.9001 67.7408 72.15 69.5381 70.6346C70.3475 71.9761 71.491 73.0847 72.8569 73.8521C71.4092 75.1168 70.2491 76.6767 69.4545 78.427C68.6598 80.1773 68.2492 82.0774 68.25 83.9996C68.25 84.5964 68.4871 85.1687 68.909 85.5906C69.331 86.0126 69.9033 86.2496 70.5 86.2496C71.0967 86.2496 71.669 86.0126 72.091 85.5906C72.5129 85.1687 72.75 84.5964 72.75 83.9996C72.75 81.6127 73.6982 79.3235 75.386 77.6357C77.0739 75.9479 79.3631 74.9996 81.75 74.9996C82.3467 74.9996 82.919 74.7626 83.341 74.3406C83.7629 73.9187 84 73.3464 84 72.7496C84 72.1529 83.7629 71.5806 83.341 71.1587C82.919 70.7367 82.3467 70.4996 81.75 70.4996H77.25C76.0565 70.4996 74.9119 70.0255 74.068 69.1816C73.2241 68.3377 72.75 67.1931 72.75 65.9996V61.4996H90.75C91.9435 61.4996 93.0881 61.9738 93.932 62.8177C94.7759 63.6616 95.25 64.8062 95.25 65.9996V70.4996Z" fill="#1E1E1E"/>
</svg>
