<svg width="24" height="22" viewBox="0 0 24 22" fill="none" xmlns="http://www.w3.org/2000/svg">
<path d="M19 15C17.8 15 16.7417 14.625 15.825 13.875C14.9083 13.125 14.3333 12.1667 14.1 11H11.125L9.925 9H14.1C14.1833 8.63333 14.296 8.28333 14.438 7.95C14.5793 7.61667 14.7667 7.3 15 7H8.7L7.5 5H16.05L14.95 2H11V0H14.95C15.3833 0 15.7667 0.120667 16.1 0.362C16.4333 0.604 16.675 0.925 16.825 1.325L18.175 5H19C20.3833 5 21.5627 5.48733 22.538 6.462C23.5127 7.43733 24 8.61667 24 10C24 11.3833 23.5127 12.5623 22.538 13.537C21.5627 14.5123 20.3833 15 19 15ZM19 13C19.8333 13 20.5417 12.7083 21.125 12.125C21.7083 11.5417 22 10.8333 22 10C22 9.16667 21.7083 8.45833 21.125 7.875C20.5417 7.29167 19.8333 7 19 7H18.925L19.9 9.675L18 10.35L17.05 7.725C16.7167 8.00833 16.4583 8.35 16.275 8.75C16.0917 9.15 16 9.56667 16 10C16 10.8333 16.2917 11.5417 16.875 12.125C17.4583 12.7083 18.1667 13 19 13ZM7 22C6.16667 22 5.45833 21.7083 4.875 21.125C4.29167 20.5417 4 19.8333 4 19H0V17H4.775C5.025 16.75 5.34167 16.5207 5.725 16.312C6.10833 16.104 6.53333 16 7 16C7.41667 16 7.81667 16.0833 8.2 16.25C8.58333 16.4167 8.925 16.6667 9.225 17H12V15H0V13H2V10H0V8H7L10 13H12C12.55 13 13.021 13.1957 13.413 13.587C13.8043 13.979 14 14.45 14 15V17C14 17.55 13.8043 18.021 13.413 18.413C13.021 18.8043 12.55 19 12 19H10C10 19.8333 9.70833 20.5417 9.125 21.125C8.54167 21.7083 7.83333 22 7 22ZM4 13H7.675L5.875 10H4V13ZM7 20C7.28333 20 7.521 19.904 7.713 19.712C7.90433 19.5207 8 19.2833 8 19C8 18.7167 7.90433 18.4793 7.713 18.288C7.521 18.096 7.28333 18 7 18C6.71667 18 6.479 18.096 6.287 18.288C6.09567 18.4793 6 18.7167 6 19C6 19.2833 6.09567 19.5207 6.287 19.712C6.479 19.904 6.71667 20 7 20Z" fill="#7566C6"/>
</svg>
