<svg width="40" height="40" viewBox="0 0 40 40" fill="none" xmlns="http://www.w3.org/2000/svg">
<rect width="40" height="40" rx="20" fill="#FFFBFF"/>
<rect width="40" height="40" rx="20" fill="#52000B" fill-opacity="0.024"/>
<mask id="mask0_1390_8808" style="mask-type:alpha" maskUnits="userSpaceOnUse" x="8" y="8" width="24" height="24">
<rect x="8" y="8" width="24" height="24" fill="#D9D9D9"/>
</mask>
<g mask="url(#mask0_1390_8808)">
<path d="M17.4 24.5L20 21.9L22.6 24.5L24 23.1L21.4 20.5L24 17.9L22.6 16.5L20 19.1L17.4 16.5L16 17.9L18.6 20.5L16 23.1L17.4 24.5ZM15 29C14.45 29 13.9792 28.8042 13.5875 28.4125C13.1958 28.0208 13 27.55 13 27V14H12V12H17V11H23V12H28V14H27V27C27 27.55 26.8042 28.0208 26.4125 28.4125C26.0208 28.8042 25.55 29 25 29H15ZM25 14H15V27H25V14Z" fill="#AA0017"/>
</g>
</svg>
