<svg width="24" height="24" viewBox="0 0 24 24" fill="none" xmlns="http://www.w3.org/2000/svg">
<mask id="mask0_1533_17520" style="mask-type:alpha" maskUnits="userSpaceOnUse" x="0" y="0" width="24" height="24">
<rect x="0.5" y="0.5" width="23" height="23" fill="#D9D9D9" stroke="#838492"/>
</mask>
<g mask="url(#mask0_1533_17520)">
<path d="M1.56118 12.8579L1.561 12.8581C1.01862 13.4652 0.750122 14.1712 0.750122 15C0.750122 15.9002 1.06373 16.6565 1.70368 17.2964C2.34362 17.9364 3.09994 18.25 4.00012 18.25C4.86936 18.25 5.60782 17.9511 6.24074 17.3404L1.56118 12.8579ZM1.56118 12.8579C2.09689 12.2576 2.76286 11.9068 3.58163 11.8H3.90012H5.29046L4.21856 10.9145L3.06856 9.96452L2.92993 9.85H2.75012H0.750122M1.56118 12.8579L0.750122 9.85M0.750122 9.85V9.65H4.13626L6.71729 11.2034L6.9242 11.3279L7.15037 11.2433L11.1406 9.75H14.6751H15.6992L15.0694 8.94248L13.1194 6.44248L12.9692 6.25H12.7251H10.7501M0.750122 9.85L10.7501 6.25M10.7501 6.25V5.75H13.1818L15.0317 8.10857L15.2721 8.41515L15.2826 8.41052L15.8056 9.08221L18.0056 11.9072L18.2505 12.2216L18.6116 12.0531C18.8285 11.9519 19.0518 11.8761 19.2821 11.8254C19.5123 11.7754 19.7514 11.75 20.0001 11.75C20.9003 11.75 21.6566 12.0636 22.2966 12.7036C22.9365 13.3435 23.2501 14.0998 23.2501 15C23.2501 15.9002 22.9365 16.6565 22.2966 17.2964C21.6566 17.9364 20.9003 18.25 20.0001 18.25C19.0999 18.25 18.3436 17.9364 17.7037 17.2964C17.0637 16.6565 16.7501 15.9002 16.7501 15C16.7501 14.5977 16.8253 14.2222 16.974 13.8689L16.9742 13.8683C17.1284 13.5006 17.3379 13.1617 17.6048 12.8504L17.8727 12.5378L17.6173 12.2149L16.7673 11.1399L16.3387 10.5978L15.9579 11.1745L12.6061 16.25H10.2876L8.07881 14.3232L7.25012 13.6003V14.7V15.1371C7.20405 16.004 6.87186 16.7307 6.24091 17.3402L10.7501 6.25ZM15.6282 8.25691L18.0751 7.16938V8.275H16.2001H15.5875L15.6282 8.25691ZM12.0751 15.75H12.344L12.4922 15.5257L15.4672 11.0257L15.9801 10.25H15.0501H11.3001H11.21L11.1255 10.2815L7.10052 11.7815L6.32188 12.0717L6.94294 12.6237L10.3179 15.6237L10.46 15.75H10.6501H12.0751ZM4.00012 17.75C4.7611 17.75 5.42312 17.4841 5.95368 16.9536C6.48423 16.423 6.75012 15.761 6.75012 15C6.75012 14.239 6.48423 13.577 5.95368 13.0464C5.42312 12.5159 4.7611 12.25 4.00012 12.25C3.23914 12.25 2.57712 12.5159 2.04657 13.0464C1.51602 13.577 1.25012 14.239 1.25012 15C1.25012 15.761 1.51602 16.423 2.04657 16.9536C2.57712 17.4841 3.23914 17.75 4.00012 17.75ZM20.0001 17.75C20.7611 17.75 21.4231 17.4841 21.9537 16.9536C22.4842 16.423 22.7501 15.761 22.7501 15C22.7501 14.239 22.4842 13.577 21.9537 13.0464C21.4231 12.5159 20.7611 12.25 20.0001 12.25C19.2391 12.25 18.5771 12.5159 18.0466 13.0464C17.516 13.577 17.2501 14.239 17.2501 15C17.2501 15.761 17.516 16.423 18.0466 16.9536C18.5771 17.4841 19.2391 17.75 20.0001 17.75Z" fill="#181818" stroke="#838492"/>
</g>
</svg>
