<svg width="48" height="48" viewBox="0 0 48 48" fill="none" xmlns="http://www.w3.org/2000/svg">
<mask id="mask0_356_9853" style="mask-type:alpha" maskUnits="userSpaceOnUse" x="12" y="12" width="24" height="24">
<rect x="12" y="12" width="24" height="24" fill="#D9D9D9"/>
</mask>
<g mask="url(#mask0_356_9853)">
<path d="M24 34C22.6167 34 21.3167 33.7373 20.1 33.212C18.8833 32.6873 17.825 31.975 16.925 31.075C16.025 30.175 15.3127 29.1167 14.788 27.9C14.2627 26.6833 14 25.3833 14 24C14 22.6167 14.2627 21.3167 14.788 20.1C15.3127 18.8833 16.025 17.825 16.925 16.925C17.825 16.025 18.8833 15.3123 20.1 14.787C21.3167 14.2623 22.6167 14 24 14C25.0833 14 26.1083 14.1583 27.075 14.475C28.0417 14.7917 28.9333 15.2333 29.75 15.8L28.3 17.275C27.6667 16.875 26.9917 16.5623 26.275 16.337C25.5583 16.1123 24.8 16 24 16C21.7833 16 19.896 16.779 18.338 18.337C16.7793 19.8957 16 21.7833 16 24C16 26.2167 16.7793 28.1043 18.338 29.663C19.896 31.221 21.7833 32 24 32C26.2167 32 28.1043 31.221 29.663 29.663C31.221 28.1043 32 26.2167 32 24C32 23.7 31.9833 23.4 31.95 23.1C31.9167 22.8 31.8667 22.5083 31.8 22.225L33.425 20.6C33.6083 21.1333 33.75 21.6833 33.85 22.25C33.95 22.8167 34 23.4 34 24C34 25.3833 33.7373 26.6833 33.212 27.9C32.6873 29.1167 31.975 30.175 31.075 31.075C30.175 31.975 29.1167 32.6873 27.9 33.212C26.6833 33.7373 25.3833 34 24 34ZM22.6 28.6L18.35 24.35L19.75 22.95L22.6 25.8L32.6 15.775L34 17.175L22.6 28.6Z" fill="#48454E"/>
</g>
<rect x="0.2" y="0.2" width="47.6" height="47.6" rx="23.8" stroke="#C9C5CA" stroke-width="0.4"/>
</svg>
