<svg width="40" height="40" viewBox="0 0 40 40" fill="none" xmlns="http://www.w3.org/2000/svg">
<rect width="40" height="40" rx="20" fill="#FFFBFF"/>
<rect width="40" height="40" rx="20" fill="#52000B" fill-opacity="0.024"/>
<mask id="mask0_1390_20585" style="mask-type:alpha" maskUnits="userSpaceOnUse" x="8" y="8" width="24" height="24">
<rect x="8" y="8" width="24" height="24" fill="#D9D9D9"/>
</mask>
<g mask="url(#mask0_1390_20585)">
<path d="M27 24C25.8 24 24.7417 23.625 23.825 22.875C22.9083 22.125 22.3333 21.1667 22.1 20H19.125L17.925 18H22.1C22.1833 17.6333 22.296 17.2833 22.438 16.95C22.5793 16.6167 22.7667 16.3 23 16H16.7L15.5 14H24.05L22.95 11H19V9H22.95C23.3833 9 23.7667 9.12067 24.1 9.362C24.4333 9.604 24.675 9.925 24.825 10.325L26.175 14H27C28.3833 14 29.5627 14.4873 30.538 15.462C31.5127 16.4373 32 17.6167 32 19C32 20.3833 31.5127 21.5623 30.538 22.537C29.5627 23.5123 28.3833 24 27 24ZM27 22C27.8333 22 28.5417 21.7083 29.125 21.125C29.7083 20.5417 30 19.8333 30 19C30 18.1667 29.7083 17.4583 29.125 16.875C28.5417 16.2917 27.8333 16 27 16H26.925L27.9 18.675L26 19.35L25.05 16.725C24.7167 17.0083 24.4583 17.35 24.275 17.75C24.0917 18.15 24 18.5667 24 19C24 19.8333 24.2917 20.5417 24.875 21.125C25.4583 21.7083 26.1667 22 27 22ZM15 31C14.1667 31 13.4583 30.7083 12.875 30.125C12.2917 29.5417 12 28.8333 12 28H8V26H12.775C13.025 25.75 13.3417 25.5207 13.725 25.312C14.1083 25.104 14.5333 25 15 25C15.4167 25 15.8167 25.0833 16.2 25.25C16.5833 25.4167 16.925 25.6667 17.225 26H20V24H8V22H10V19H8V17H15L18 22H20C20.55 22 21.021 22.1957 21.413 22.587C21.8043 22.979 22 23.45 22 24V26C22 26.55 21.8043 27.021 21.413 27.413C21.021 27.8043 20.55 28 20 28H18C18 28.8333 17.7083 29.5417 17.125 30.125C16.5417 30.7083 15.8333 31 15 31ZM12 22H15.675L13.875 19H12V22ZM15 29C15.2833 29 15.521 28.904 15.713 28.712C15.9043 28.5207 16 28.2833 16 28C16 27.7167 15.9043 27.4793 15.713 27.288C15.521 27.096 15.2833 27 15 27C14.7167 27 14.479 27.096 14.287 27.288C14.0957 27.4793 14 27.7167 14 28C14 28.2833 14.0957 28.5207 14.287 28.712C14.479 28.904 14.7167 29 15 29Z" fill="#AA0017"/>
</g>
</svg>
