<svg width="45" height="41" viewBox="0 0 45 41" fill="none" xmlns="http://www.w3.org/2000/svg">
<path d="M30.7 21.5996L27.8 18.6996C28.1 17.1329 27.65 15.6663 26.45 14.2996C25.25 12.9329 23.7 12.3996 21.8 12.6996L18.9 9.79961C19.4667 9.53294 20.0413 9.33294 20.624 9.19961C21.208 9.06628 21.8333 8.99961 22.5 8.99961C25 8.99961 27.1253 9.87428 28.876 11.6236C30.6253 13.3743 31.5 15.4996 31.5 17.9996C31.5 18.6663 31.4333 19.2916 31.3 19.8756C31.1667 20.4583 30.9667 21.0329 30.7 21.5996ZM37.1 27.8996L34.2 25.0996C35.4667 24.1329 36.592 23.0743 37.576 21.9236C38.5587 20.7743 39.4 19.4663 40.1 17.9996C38.4333 14.6329 36.0413 11.9576 32.924 9.97361C29.808 7.99094 26.3333 6.99961 22.5 6.99961C21.5333 6.99961 20.5833 7.06628 19.65 7.19961C18.7167 7.33294 17.8 7.53294 16.9 7.79961L13.8 4.69961C15.1667 4.13294 16.5667 3.70761 18 3.42361C19.4333 3.14094 20.9333 2.99961 22.5 2.99961C27.5333 2.99961 32.0167 4.39094 35.95 7.17361C39.8833 9.95761 42.7333 13.5663 44.5 17.9996C43.7333 19.9663 42.7253 21.7916 41.476 23.4756C40.2253 25.1583 38.7667 26.6329 37.1 27.8996ZM38.1 40.1996L29.7 31.8996C28.5333 32.2663 27.3587 32.5416 26.176 32.7256C24.992 32.9083 23.7667 32.9996 22.5 32.9996C17.4667 32.9996 12.9833 31.6083 9.05 28.8256C5.11667 26.0416 2.26667 22.4329 0.5 17.9996C1.2 16.2329 2.08333 14.5909 3.15 13.0736C4.21667 11.5576 5.43333 10.1996 6.8 8.99961L1.3 3.39961L4.1 0.599609L40.9 37.3996L38.1 40.1996ZM9.6 11.7996C8.63333 12.6663 7.75 13.6163 6.95 14.6496C6.15 15.6829 5.46667 16.7996 4.9 17.9996C6.56667 21.3663 8.958 24.0409 12.074 26.0236C15.1913 28.0076 18.6667 28.9996 22.5 28.9996C23.1667 28.9996 23.8167 28.9583 24.45 28.8756C25.0833 28.7916 25.7333 28.6996 26.4 28.5996L24.6 26.6996C24.2333 26.7996 23.8833 26.8743 23.55 26.9236C23.2167 26.9743 22.8667 26.9996 22.5 26.9996C20 26.9996 17.8747 26.1249 16.124 24.3756C14.3747 22.6249 13.5 20.4996 13.5 17.9996C13.5 17.6329 13.5247 17.2829 13.574 16.9496C13.6247 16.6163 13.7 16.2663 13.8 15.8996L9.6 11.7996Z" fill="#838492"/>
</svg>
