<svg width="40" height="40" viewBox="0 0 40 40" fill="none" xmlns="http://www.w3.org/2000/svg">
<rect width="40" height="40" rx="20" fill="#FFFBFF"/>
<rect width="40" height="40" rx="20" fill="#52000B" fill-opacity="0.024"/>
<mask id="mask0_1390_13596" style="mask-type:alpha" maskUnits="userSpaceOnUse" x="8" y="8" width="24" height="24">
<rect x="8" y="8" width="24" height="24" fill="#D9D9D9"/>
</mask>
<g mask="url(#mask0_1390_13596)">
<path d="M24 21.5C24.4333 21.5 24.7917 21.3583 25.075 21.075C25.3583 20.7917 25.5 20.4333 25.5 20C25.5 19.5667 25.3583 19.2083 25.075 18.925C24.7917 18.6417 24.4333 18.5 24 18.5C23.5667 18.5 23.2083 18.6417 22.925 18.925C22.6417 19.2083 22.5 19.5667 22.5 20C22.5 20.4333 22.6417 20.7917 22.925 21.075C23.2083 21.3583 23.5667 21.5 24 21.5ZM13 29C12.45 29 11.979 28.8043 11.587 28.413C11.1957 28.021 11 27.55 11 27V13C11 12.45 11.1957 11.979 11.587 11.587C11.979 11.1957 12.45 11 13 11H27C27.55 11 28.021 11.1957 28.413 11.587C28.8043 11.979 29 12.45 29 13V15.5H27V13H13V27H27V24.5H29V27C29 27.55 28.8043 28.021 28.413 28.413C28.021 28.8043 27.55 29 27 29H13ZM21 25C20.45 25 19.9793 24.8043 19.588 24.413C19.196 24.021 19 23.55 19 23V17C19 16.45 19.196 15.979 19.588 15.587C19.9793 15.1957 20.45 15 21 15H28C28.55 15 29.021 15.1957 29.413 15.587C29.8043 15.979 30 16.45 30 17V23C30 23.55 29.8043 24.021 29.413 24.413C29.021 24.8043 28.55 25 28 25H21ZM28 23V17H21V23H28Z" fill="#AA0017"/>
</g>
</svg>
